<svg xmlns="http://www.w3.org/2000/svg" viewBox="0 0 462.85 419.93"><g id="Layer_2" data-name="Layer 2"><g id="Background_Simple" data-name="Background Simple"><path d="M454,198.51A242.59,242.59,0,0,0,324,30q-10.54-5.2-22.4-10.49c-99-44-156-6-185,38s-65,120-88,157-53,115,5,169,113,36,151,21,76-2,146-2,128-54,132-121C464,257,459.86,226.88,454,198.51Z" fill="#92e3a9"/><path d="M454,198.51A242.59,242.59,0,0,0,324,30q-10.54-5.2-22.4-10.49c-99-44-156-6-185,38s-65,120-88,157-53,115,5,169,113,36,151,21,76-2,146-2,128-54,132-121C464,257,459.86,226.88,454,198.51Z" fill="#fff" opacity="0.7"/></g><g id="Lock"><path d="M337.39,215.34a102.38,102.38,0,0,0-190.11-17.78" fill="none" stroke="#263238" stroke-linecap="round" stroke-linejoin="round"/><path d="M341.2,241.09a102.22,102.22,0,0,0-1.3-14.41" fill="none" stroke="#263238" stroke-linecap="round" stroke-linejoin="round"/><path d="M151.93,297.18A102.35,102.35,0,0,0,340.6,254.62" fill="none" stroke="#263238" stroke-linecap="round" stroke-linejoin="round"/><path d="M145.44,285q1.49,3.33,3.2,6.52" fill="none" stroke="#263238" stroke-linecap="round" stroke-linejoin="round"/><path d="M143.56,205.93a102.78,102.78,0,0,0-1.08,71.66" fill="none" stroke="#263238" stroke-linecap="round" stroke-linejoin="round"/><path d="M309.59,263.92a73.22,73.22,0,0,0,2.23-10.31l-4.87-.52a2.5,2.5,0,1,1,.52-5l4.87.51c.13-1.79.22-3.59.22-5.42A73.4,73.4,0,0,0,309.72,223l-5,1.63a2.63,2.63,0,0,1-.77.12,2.5,2.5,0,0,1-.77-4.88l5-1.63a73.34,73.34,0,0,0-13-22.45l-4.13,3.72a2.5,2.5,0,0,1-3.35-3.72l4.13-3.71a74,74,0,0,0-21.09-15.27l-2.35,5.29a2.52,2.52,0,0,1-2.29,1.49,2.42,2.42,0,0,1-1-.22,2.5,2.5,0,0,1-1.27-3.3l2.34-5.25a73.31,73.31,0,0,0-25.55-5.21v5.81a2.5,2.5,0,0,1-5,0v-5.77a73.34,73.34,0,0,0-25.44,5.71l2.34,5.25a2.5,2.5,0,0,1-1.27,3.3,2.42,2.42,0,0,1-1,.22,2.5,2.5,0,0,1-2.29-1.49l-2.3-5.16a74,74,0,0,0-20.77,15.63l4.08,3.67a2.5,2.5,0,0,1-1.67,4.36,2.46,2.46,0,0,1-1.67-.64l-4-3.61a73.68,73.68,0,0,0-12.5,22.65l4.92,1.6a2.5,2.5,0,0,1-.77,4.88,2.64,2.64,0,0,1-.78-.12l-4.82-1.57a73.64,73.64,0,0,0-2.46,18.9c0,2.28.11,4.52.32,6.74l4.77-.5a2.5,2.5,0,0,1,.52,5l-4.68.49a73,73,0,0,0,8.39,24.17l3.87-2.23a2.5,2.5,0,0,1,2.5,4.33l-3.78,2.18A74,74,0,0,0,194.49,302l2.47-3.4a2.5,2.5,0,1,1,4,2.94l-2.43,3.33a73.22,73.22,0,0,0,23.32,10l.85-4a2.5,2.5,0,0,1,4.89,1l-.84,3.94a74.15,74.15,0,0,0,12.09,1,73.35,73.35,0,0,0,13.27-1.22l-.85-4a2.5,2.5,0,0,1,4.89-1l.85,4a73.44,73.44,0,0,0,23.18-10.42l-2.51-3.46a2.5,2.5,0,0,1,4-2.94l2.49,3.43a73.86,73.86,0,0,0,17.08-18.94L297.4,280a2.5,2.5,0,1,1,2.5-4.33l4,2.29a73.9,73.9,0,0,0,4.21-9.38" fill="none" stroke="#263238" stroke-linecap="round" stroke-linejoin="round"/><path d="M196.13,219.27a49.12,49.12,0,1,0,4.52-6.69" fill="none" stroke="#263238" stroke-linecap="round" stroke-linejoin="round"/><path d="M185.77,75.46A56.34,56.34,0,0,1,295.23,94.21v27.21" fill="none" stroke="#263238" stroke-linecap="round" stroke-linejoin="round"/><path d="M313.23,161.65V94.21a74.34,74.34,0,0,0-148.67,0v78.68a102.6,102.6,0,0,1,18-15.11V94.21a56.22,56.22,0,0,1,1.3-12" fill="none" stroke="#263238" stroke-linecap="round" stroke-linejoin="round"/><path d="M295.23,131.35v26.43a102.6,102.6,0,0,1,18,15.11v-7.06" fill="none" stroke="#263238" stroke-linecap="round" stroke-linejoin="round"/></g><g id="Password"><path d="M308.23,398.88H169.56a13.67,13.67,0,0,1-13.67-13.67h0a13.67,13.67,0,0,1,13.67-13.66H308.23a13.67,13.67,0,0,1,13.66,13.66h0A13.67,13.67,0,0,1,308.23,398.88Z" fill="#263238" stroke="#263238" stroke-linecap="round" stroke-linejoin="round"/><path d="M174.41,383.72l-1.28-8.13h4.43l-1.28,8.13,7.34-3.69,1.38,4.18-8.08,1.38,5.76,5.76L179.14,394l-3.79-7.29L171.56,394,168,391.35l5.76-5.76-8.07-1.38,1.38-4.18Z" fill="#92e3a9"/><path d="M206.29,383.72,205,375.59h4.43l-1.28,8.13L215.5,380l1.38,4.18-8.08,1.38,5.76,5.76L211,394l-3.79-7.29-3.8,7.29-3.54-2.61,5.76-5.76-8.07-1.38L199,380Z" fill="#92e3a9"/><path d="M238.17,383.72l-1.28-8.13h4.43L240,383.72l7.34-3.69,1.38,4.18-8.08,1.38,5.76,5.76L242.9,394l-3.79-7.29-3.8,7.29-3.54-2.61,5.76-5.76-8.08-1.38,1.38-4.18Z" fill="#92e3a9"/><path d="M270.05,383.72l-1.28-8.13h4.43l-1.28,8.13,7.34-3.69,1.37,4.18-8.07,1.38,5.76,5.76L274.78,394l-3.8-7.29L267.19,394l-3.54-2.61,5.76-5.76-8.08-1.38,1.38-4.18Z" fill="#92e3a9"/><path d="M301.93,383.72l-1.28-8.13h4.43l-1.28,8.13,7.34-3.69,1.37,4.18-8.07,1.38,5.76,5.76L306.65,394l-3.79-7.29L299.07,394l-3.54-2.61,5.76-5.76-8.08-1.38,1.38-4.18Z" fill="#92e3a9"/></g><g id="GPS"><line x1="399.5" y1="351.77" x2="363.06" y2="351.77" fill="none" stroke="#263238" stroke-linecap="round" stroke-linejoin="round"/><path d="M408.17,283.56v22.88a9.09,9.09,0,0,0,9.09,9.09h2.25a8.9,8.9,0,0,1,8.91,8.91v16.78a10.55,10.55,0,0,1-10.55,10.55H404.78" fill="none" stroke="#263238" stroke-linecap="round" stroke-linejoin="round"/><path d="M407.82,298.48h3.47a10,10,0,0,0,10-10v-6" fill="none" stroke="#263238" stroke-linecap="round" stroke-linejoin="round"/><path d="M387.93,283.2v7.11h3.89A10.67,10.67,0,0,1,402.49,301v1.41h5" fill="none" stroke="#263238" stroke-linecap="round" stroke-linejoin="round"/><line x1="373.7" y1="290.31" x2="365.54" y2="290.31" fill="none" stroke="#263238" stroke-linecap="round" stroke-linejoin="round"/><line x1="387.93" y1="290.31" x2="378.98" y2="290.31" fill="none" stroke="#263238" stroke-linecap="round" stroke-linejoin="round"/><line x1="416.7" y1="352.12" x2="416.7" y2="372.88" fill="none" stroke="#263238" stroke-linecap="round" stroke-linejoin="round"/><line x1="429.13" y1="332.58" x2="440.15" y2="332.58" fill="none" stroke="#263238" stroke-linecap="round" stroke-linejoin="round"/><polyline points="435.17 332.58 435.17 324.77 440.86 324.77" fill="none" stroke="#263238" stroke-linecap="round" stroke-linejoin="round"/><line x1="436.45" y1="300.97" x2="441.57" y2="300.97" fill="none" stroke="#263238" stroke-linecap="round" stroke-linejoin="round"/><polyline points="424.52 317.78 424.52 300.97 431.18 300.97" fill="none" stroke="#263238" stroke-linecap="round" stroke-linejoin="round"/><path d="M364.48,363.49l10.3-7.46h23.09a7.46,7.46,0,0,1,7.46,7.46v8.79" fill="none" stroke="#263238" stroke-linecap="round" stroke-linejoin="round"/><line x1="436.47" y1="348.34" x2="436.47" y2="371.67" fill="none" stroke="#263238" stroke-linecap="round" stroke-linejoin="round"/><polyline points="412.41 341.21 428.42 341.21 436.47 341.21 436.47 343.06" fill="none" stroke="#263238" stroke-linecap="round" stroke-linejoin="round"/><line x1="362.59" y1="341.22" x2="407.72" y2="341.22" fill="none" stroke="#263238" stroke-linecap="round" stroke-linejoin="round"/><path d="M420.72,341.39l-1.52-3.47a10.36,10.36,0,0,0-9.5-6.22H368.65v19.38" fill="none" stroke="#263238" stroke-linecap="round" stroke-linejoin="round"/><line x1="441.92" y1="359.56" x2="404.37" y2="359.56" fill="none" stroke="#263238" stroke-linecap="round" stroke-linejoin="round"/><path d="M420.12,324.44a3.64,3.64,0,1,0-3.64,3.63A3.64,3.64,0,0,0,420.12,324.44Z" fill="none" stroke="#263238" stroke-linecap="round" stroke-linejoin="round"/><rect x="374.09" y="362.59" width="22.41" height="6.66" fill="none" stroke="#263238" stroke-linecap="round" stroke-linejoin="round"/><path d="M388.33,297.83a17.75,17.75,0,0,0-17.75,17.75c0,9.8,17.75,31.87,17.75,31.87s17.75-22.07,17.75-31.87A17.75,17.75,0,0,0,388.33,297.83Zm0,23.9a6.16,6.16,0,1,1,6.16-6.15A6.15,6.15,0,0,1,388.33,321.73Z" fill="#263238" stroke="#263238" stroke-linecap="round" stroke-linejoin="round"/><path d="M384.7,295.41A17.75,17.75,0,0,0,367,313.15C367,323,384.7,345,384.7,345s17.74-22.07,17.74-31.87A17.74,17.74,0,0,0,384.7,295.41Zm0,23.9a6.16,6.16,0,1,1,6.15-6.16A6.16,6.16,0,0,1,384.7,319.31Z" fill="#92e3a9" stroke="#263238" stroke-linecap="round" stroke-linejoin="round"/></g><g id="Documents"><polygon points="446.21 257.55 457.5 205.78 430.21 205.78 446.21 257.55" fill="#263238" stroke="#263238" stroke-linecap="round" stroke-linejoin="round"/><rect x="381.66" y="161.65" width="66.35" height="72.47" fill="#fff" stroke="#263238" stroke-linecap="round" stroke-linejoin="round"/><rect x="376.56" y="157.31" width="66.35" height="72.47" fill="#fff" stroke="#263238" stroke-linecap="round" stroke-linejoin="round"/><rect x="381.27" y="165.67" width="16.94" height="18.46" fill="#fff" stroke="#263238" stroke-linecap="round" stroke-linejoin="round"/><line x1="418.27" y1="166.25" x2="435.85" y2="166.25" fill="none" stroke="#263238" stroke-linecap="round" stroke-linejoin="round"/><line x1="404.32" y1="166.25" x2="414.17" y2="166.25" fill="none" stroke="#263238" stroke-linecap="round" stroke-linejoin="round"/><line x1="429.42" y1="172.84" x2="435.85" y2="172.84" fill="none" stroke="#263238" stroke-linecap="round" stroke-linejoin="round"/><line x1="404.32" y1="172.84" x2="425.9" y2="172.84" fill="none" stroke="#263238" stroke-linecap="round" stroke-linejoin="round"/><line x1="417.69" y1="179.43" x2="435.85" y2="179.43" fill="none" stroke="#263238" stroke-linecap="round" stroke-linejoin="round"/><line x1="404.32" y1="179.43" x2="412.41" y2="179.43" fill="none" stroke="#263238" stroke-linecap="round" stroke-linejoin="round"/><line x1="422.38" y1="186.02" x2="435.85" y2="186.02" fill="none" stroke="#263238" stroke-linecap="round" stroke-linejoin="round"/><line x1="404.32" y1="186.02" x2="415.93" y2="186.02" fill="none" stroke="#263238" stroke-linecap="round" stroke-linejoin="round"/><line x1="429.42" y1="192.61" x2="435.85" y2="192.61" fill="none" stroke="#263238" stroke-linecap="round" stroke-linejoin="round"/><line x1="411.82" y1="192.61" x2="422.96" y2="192.61" fill="none" stroke="#263238" stroke-linecap="round" stroke-linejoin="round"/><line x1="404.32" y1="192.61" x2="408.96" y2="192.61" fill="none" stroke="#263238" stroke-linecap="round" stroke-linejoin="round"/><circle cx="389.85" cy="172.55" r="4.29" fill="#263238" stroke="#263238" stroke-linecap="round" stroke-linejoin="round"/><path d="M396,180.23a4.37,4.37,0,0,0-3.78-2.19h-4.4a4.37,4.37,0,0,0-3.55,1.84l-3,4.25h16.94Z" fill="#263238" stroke="#263238" stroke-linecap="round" stroke-linejoin="round"/><polygon points="367.15 194.49 377.97 257.55 446.21 257.55 439.62 200.13 401.03 200.13 395.85 194.02 367.15 194.49" fill="#92e3a9" stroke="#263238" stroke-linecap="round" stroke-linejoin="round"/><path d="M410.8,220.84a6.23,6.23,0,0,0-6.1-5.65,5.13,5.13,0,0,0-5.19,5.65,6.19,6.19,0,0,0,3.08,4.81l-.29,15.43h8.47l-2.71-15.18A5.14,5.14,0,0,0,410.8,220.84Z" fill="#263238" stroke="#263238" stroke-linecap="round" stroke-linejoin="round"/></g><g id="Fingerprint"><path d="M440.47,81.9a.94.94,0,0,0,.91.69.78.78,0,0,0,.26,0,1,1,0,0,0,.66-1.17,25.57,25.57,0,0,0-3.21-7.12.95.95,0,1,0-1.59,1A23.83,23.83,0,0,1,440.47,81.9Z" fill="#263238"/><path d="M388.91,72.91a1,1,0,0,0,.58.2,1,1,0,0,0,.76-.38,27.78,27.78,0,0,1,24.09-9.36c9.13,1,16.11,4,20.72,8.84a1,1,0,1,0,1.38-1.31c-4.93-5.22-12.3-8.38-21.9-9.42a29.2,29.2,0,0,0-25.81,10.1A1,1,0,0,0,388.91,72.91Z" fill="#263238"/><path d="M442.55,88.19c-5-.93-7.17-6-8.9-10.15-.4-.93-.77-1.81-1.15-2.57-2.22-4.44-11.72-9-20.64-8.25-3.77.32-16.46,2.38-21.51,15.32-2.25,5.76-2.33,12.12-2,16.44a1,1,0,0,0,.94.88h.08a.94.94,0,0,0,.87-1c-.31-4.12-.24-10.17,1.87-15.6,4.65-11.91,16.41-13.82,19.91-14.12,8.74-.75,17.09,3.85,18.77,7.22.35.69.71,1.55,1.09,2.45,1.82,4.29,4.3,10.16,10.32,11.28a1,1,0,0,0,1.11-.77A1,1,0,0,0,442.55,88.19Z" fill="#263238"/><path d="M390.24,106.29l.23,0a.94.94,0,0,0,.69-1.15s-.24-1-.49-2.66a1,1,0,1,0-1.88.29c.26,1.73.51,2.78.53,2.82A.94.94,0,0,0,390.24,106.29Z" fill="#263238"/><path d="M442.2,96.09,432,88.59a21.47,21.47,0,0,0-1-3.29c-1-2.86-5.45-10.52-13.24-11.59a24.86,24.86,0,0,0-13.4,1.72.95.95,0,1,0,.78,1.73,22.92,22.92,0,0,1,12.36-1.56c6.83.94,10.84,8,11.71,10.35a15.51,15.51,0,0,1,.94,3.17,1,1,0,0,0,.39.77l10.48,7.73a.9.9,0,0,0,.56.19,1,1,0,0,0,.77-.39A1,1,0,0,0,442.2,96.09Z" fill="#263238"/><path d="M397.14,102.32c-1.65-5.56-2.71-13.53,1.62-19.9a14.22,14.22,0,0,1,3.68-3.7,1,1,0,0,0,.23-1.33.94.94,0,0,0-1.32-.23,16.24,16.24,0,0,0-4.16,4.19c-3.76,5.53-4.41,13-1.88,21.51,1.72,5.81-6.57,9-6.66,9.07a1,1,0,0,0,.34,1.84,1,1,0,0,0,.34-.06C392.81,112.4,398.92,108.32,397.14,102.32Z" fill="#263238"/><path d="M441.41,103.3c-.1-.07-10.13-6.7-13.24-10.76-1.75-2.29-1.94-3.06-2.14-3.88a9.29,9.29,0,0,0-1.3-3c-2-3.31-6.84-6.77-13.68-5.68-6.6,1-10.54,6.16-10.54,13.66,0,3.1.24,5.77.47,8.35a54.12,54.12,0,0,1,.29,9.54c-.44,5.21-7.64,7.1-7.77,7.13a1,1,0,0,0,.23,1.88.85.85,0,0,0,.23,0c.36-.09,8.65-2.24,9.2-8.83a55.64,55.64,0,0,0-.28-9.86c-.23-2.54-.46-5.17-.46-8.18,0-6.58,3.25-10.87,8.93-11.78,5.92-1,10,2,11.76,4.8a7.2,7.2,0,0,1,1.07,2.48c.24,1,.49,2,2.48,4.58,3.3,4.32,13.28,10.92,13.7,11.2a1,1,0,0,0,1.32-.28A.94.94,0,0,0,441.41,103.3Z" fill="#263238"/><path d="M412.94,103.75l-.48-.6c-3.68-4.58-5.7-7.1-2.7-12,1.05-1.72,2.23-2.57,3.48-2.51,1.86.08,4.05,2.12,5.59,5.19.86,1.74,3.13,4.43,6.91,8.23a1,1,0,1,0,1.35-1.34c-4.47-4.49-6-6.69-6.56-7.74-1.9-3.8-4.59-6.13-7.21-6.24-1.38-.06-3.4.49-5.18,3.42-3.7,6.08-1,9.49,2.83,14.22l.48.59c4,5,17.53,16.14,18.1,16.61a.94.94,0,0,0,.61.22,1,1,0,0,0,.6-1.69C430.62,120,416.82,108.6,412.94,103.75Z" fill="#263238"/><path d="M430.61,104.12a1,1,0,0,0-1.34,0,1,1,0,0,0,0,1.35c4,3.81,7.68,7,7.72,7a.94.94,0,0,0,1.34-.09,1,1,0,0,0-.09-1.34S434.59,107.9,430.61,104.12Z" fill="#263238"/><path d="M434.49,115.32c-.13-.1-12.67-10-15.8-14a28.82,28.82,0,0,1-4.34-8.18.95.95,0,1,0-1.82.54,29.61,29.61,0,0,0,4.65,8.79c3.27,4.29,15.61,14,16.13,14.39a.93.93,0,0,0,.59.21,1,1,0,0,0,.75-.37A1,1,0,0,0,434.49,115.32Z" fill="#263238"/><path d="M413.69,119c-3.6,2.21-4.41,9.38-4.44,9.69a1,1,0,0,0,.85,1h.1a.94.94,0,0,0,.94-.85c.2-1.81,1.21-6.84,3.55-8.27,1.91-1.18,6,2.71,7.75,4.78a.93.93,0,0,0,1.33.13,1,1,0,0,0,.14-1.34C423.26,123.41,417.53,116.63,413.69,119Z" fill="#263238"/><path d="M407,107.91a1,1,0,0,0-.68,1.16,16.29,16.29,0,0,1-.71,9.14,10.61,10.61,0,0,1-5.44,6,1,1,0,0,0,.34,1.84,1,1,0,0,0,.33-.06,12.52,12.52,0,0,0,6.54-7,17.82,17.82,0,0,0,.78-10.32A1,1,0,0,0,407,107.91Z" fill="#263238"/><path d="M403.9,58.47c5.89-1.42,14.81-2.3,23.89,1.59a1,1,0,0,0,.74-1.75c-9.55-4.1-18.91-3.18-25.08-1.69a1,1,0,1,0,.45,1.85Z" fill="#263238"/><path d="M397.23,60.64a.85.85,0,0,0,.4-.1s.92-.43,2.48-1a1,1,0,0,0-.62-1.8c-1.67.58-2.63,1-2.67,1a1,1,0,0,0,.41,1.82Z" fill="#263238"/></g><g id="Email"><rect x="25.44" y="290.08" width="71.16" height="46.14" rx="5.87" fill="#fff" stroke="#263238" stroke-linecap="round" stroke-linejoin="round"/><path d="M35.44,301.61,58.8,314.86a8.66,8.66,0,0,0,9-.26L96.6,295.94" fill="none" stroke="#263238" stroke-linecap="round" stroke-linejoin="round"/><line x1="25.44" y1="295.94" x2="31.51" y2="299.39" fill="none" stroke="#263238" stroke-linecap="round" stroke-linejoin="round"/><rect x="42.64" y="307.28" width="71.16" height="46.14" rx="5.87" fill="#92e3a9" stroke="#263238" stroke-linecap="round" stroke-linejoin="round"/><line x1="96.2" y1="324.54" x2="113.81" y2="313.15" fill="none" stroke="#263238" stroke-linecap="round" stroke-linejoin="round"/><path d="M51.46,318.15,76,332.06a8.68,8.68,0,0,0,9-.26l6.84-4.43" fill="none" stroke="#263238" stroke-linecap="round" stroke-linejoin="round"/><line x1="42.64" y1="313.15" x2="48.74" y2="316.6" fill="none" stroke="#263238" stroke-linecap="round" stroke-linejoin="round"/><circle cx="111.07" cy="311.97" r="10.56" transform="translate(-219.62 294.31) rotate(-67.35)" fill="#263238" stroke="#263238" stroke-linecap="round" stroke-linejoin="round"/><path d="M106.89,309.11a1.42,1.42,0,0,0,1.57-1.15h1v9.09H108v-6.93h-1.1Z" fill="#fff"/><path d="M111,310.14a2.17,2.17,0,1,1,4.34,0v4.73a2.17,2.17,0,1,1-4.34,0Zm1.43,4.82c0,.65.29.9.74.9s.74-.25.74-.9v-4.91c0-.65-.28-.89-.74-.89s-.74.24-.74.89Z" fill="#fff"/></g><g id="Cards"><path d="M97.1,177.77v39a5,5,0,0,1-5,5H30.34a5,5,0,0,1-5-5v-39a5,5,0,0,1,5-5H92.06A5,5,0,0,1,97.1,177.77Z" fill="#92e3a9" stroke="#263238" stroke-linecap="round" stroke-linejoin="round"/><circle cx="87.02" cy="179.34" r="3.78" fill="#fff" stroke="#263238" stroke-linecap="round" stroke-linejoin="round"/><rect x="25.3" y="188.32" width="71.8" height="11.43" fill="#263238" stroke="#263238" stroke-linecap="round" stroke-linejoin="round"/><path d="M113.6,193.26v39a5,5,0,0,1-5,5H46.84a5,5,0,0,1-5-5v-39a5,5,0,0,1,5-5h61.72A5,5,0,0,1,113.6,193.26Z" fill="#fff" stroke="#263238" stroke-linecap="round" stroke-linejoin="round"/><circle cx="103.52" cy="194.83" r="3.78" fill="#fff" stroke="#263238" stroke-linecap="round" stroke-linejoin="round"/><rect x="41.8" y="203.81" width="71.8" height="11.43" fill="#263238" stroke="#263238" stroke-linecap="round" stroke-linejoin="round"/></g><g id="Money"><rect x="27.93" y="68.43" width="77.73" height="46.76" fill="#fff" stroke="#263238" stroke-linecap="round" stroke-linejoin="round"/><rect x="34" y="73.28" width="65.59" height="37.04" fill="#92e3a9" stroke="#263238" stroke-linecap="round" stroke-linejoin="round"/><circle cx="66.8" cy="91.81" r="12.75" fill="#fff" stroke="#263238" stroke-linecap="round" stroke-linejoin="round"/><rect x="30.02" y="64.9" width="77.73" height="46.76" transform="translate(9.58 -6.7) rotate(5.99)" fill="#fff" stroke="#263238" stroke-linecap="round" stroke-linejoin="round"/><rect x="36.1" y="69.76" width="65.59" height="37.04" transform="translate(9.58 -6.7) rotate(5.99)" fill="#92e3a9" stroke="#263238" stroke-linecap="round" stroke-linejoin="round"/><path d="M81.57,89.61a12.75,12.75,0,1,0-14,11.36A12.75,12.75,0,0,0,81.57,89.61Z" fill="#fff" stroke="#263238" stroke-linecap="round" stroke-linejoin="round"/><rect x="35.06" y="58.8" width="77.73" height="46.76" transform="translate(28.26 -18.48) rotate(17.57)" fill="#fff" stroke="#263238" stroke-linecap="round" stroke-linejoin="round"/><rect x="41.14" y="63.66" width="65.59" height="37.04" transform="translate(28.26 -18.48) rotate(17.57)" fill="#92e3a9" stroke="#263238" stroke-linecap="round" stroke-linejoin="round"/><path d="M86.09,86a12.75,12.75,0,1,0-16,8.31A12.76,12.76,0,0,0,86.09,86Z" fill="#fff" stroke="#263238" stroke-linecap="round" stroke-linejoin="round"/><circle cx="87.91" cy="123.38" r="17.98" transform="translate(-25.17 22.56) rotate(-12.81)" fill="#fff" stroke="#263238" stroke-linecap="round" stroke-linejoin="round"/><line x1="76.04" y1="112.09" x2="74.07" y2="112.09" fill="none" stroke="#263238" stroke-linecap="round" stroke-linejoin="round"/><line x1="73.92" y1="114.82" x2="72.1" y2="114.82" fill="none" stroke="#263238" stroke-linecap="round" stroke-linejoin="round"/><line x1="72.71" y1="118.31" x2="71.04" y2="118.31" fill="none" stroke="#263238" stroke-linecap="round" stroke-linejoin="round"/><line x1="72.25" y1="125.44" x2="70.28" y2="125.44" fill="none" stroke="#263238" stroke-linecap="round" stroke-linejoin="round"/><circle cx="89.88" cy="123.38" r="17.98" transform="translate(-59.75 93.2) rotate(-42.52)" fill="#fff" stroke="#263238" stroke-linecap="round" stroke-linejoin="round"/><circle cx="89.88" cy="123.38" r="13.04" transform="translate(-18.15 15.54) rotate(-8.98)" fill="#fff" stroke="#263238" stroke-linecap="round" stroke-linejoin="round" stroke-width="2"/><path d="M89,115.49v-1.11h1.93v1.11c1.67.34,2.53,1.63,2.53,3.67v.47H91.23V119c0-1.08-.43-1.48-1.18-1.48s-1.18.4-1.18,1.48c0,3.08,4.61,3.23,4.61,7.52,0,2-.88,3.34-2.55,3.68v1.1H89v-1.1c-1.69-.34-2.55-1.65-2.55-3.68v-1h2.23v1.18c0,1.07.47,1.45,1.22,1.45s1.22-.38,1.22-1.45c0-3.09-4.61-3.24-4.61-7.52C86.51,117.14,87.35,115.86,89,115.49Z" fill="#263238"/><circle cx="93.57" cy="108.7" r="17.98" transform="translate(-23.25 25.48) rotate(-13.81)" fill="#fff" stroke="#263238" stroke-linecap="round" stroke-linejoin="round"/><line x1="81.7" y1="97.41" x2="79.73" y2="97.41" fill="none" stroke="#263238" stroke-linecap="round" stroke-linejoin="round"/><line x1="79.58" y1="100.14" x2="77.76" y2="100.14" fill="none" stroke="#263238" stroke-linecap="round" stroke-linejoin="round"/><line x1="78.36" y1="103.63" x2="76.7" y2="103.63" fill="none" stroke="#263238" stroke-linecap="round" stroke-linejoin="round"/><line x1="77.91" y1="110.76" x2="75.94" y2="110.76" fill="none" stroke="#263238" stroke-linecap="round" stroke-linejoin="round"/><circle cx="95.54" cy="108.7" r="17.98" transform="translate(-49.15 105.95) rotate(-47.6)" fill="#fff" stroke="#263238" stroke-linecap="round" stroke-linejoin="round"/><circle cx="95.54" cy="108.7" r="13.04" transform="translate(-41.3 155.82) rotate(-67.69)" fill="#fff" stroke="#263238" stroke-linecap="round" stroke-linejoin="round" stroke-width="2"/><path d="M94.66,100.81V99.7h1.92v1.11c1.68.35,2.53,1.63,2.53,3.67V105H96.88v-.62c0-1.07-.42-1.48-1.17-1.48s-1.18.41-1.18,1.48c0,3.08,4.6,3.23,4.6,7.52,0,2-.87,3.34-2.55,3.68v1.1H94.66v-1.1c-1.7-.34-2.55-1.65-2.55-3.68v-1h2.22V112c0,1.07.48,1.45,1.23,1.45s1.22-.38,1.22-1.45c0-3.09-4.61-3.24-4.61-7.52C92.17,102.46,93,101.18,94.66,100.81Z" fill="#263238"/></g><g id="Character"><path d="M178.06,238.05s1,5.5,2.25,7.5,4.75,4.25,5,8.5a82.85,82.85,0,0,1,0,8.5s10.75,6.5,19.5,11a106.79,106.79,0,0,0,16.25,6.75l-2.5,20.75s-26.5-18.5-32.75-24.25-12-12.25-13-12.5-9-11.25-9.25-12.5,3.75-3.75,5-3.5,2.75-2.75,3.5-5.25.75-5.5,2.5-5.5A14.62,14.62,0,0,1,178.06,238.05Z" fill="#fff" stroke="#263238" stroke-linecap="round" stroke-linejoin="round"/><path d="M141.76,238.28l30.71,31.16a2.75,2.75,0,0,0,3.47.36l7.91-5.21a2.75,2.75,0,0,0,.49-4.17l-28-30a2.74,2.74,0,0,0-3-.69l-10.6,4.08A2.74,2.74,0,0,0,141.76,238.28Z" fill="#263238" stroke="#263238" stroke-linecap="round" stroke-linejoin="round"/><path d="M205.41,339.94A102.52,102.52,0,0,0,285,334.58c.64-8.91,1.06-19.64,1.06-23.53,0-6.75,5.75-31.75,8.75-45.25s-1-28.5-4.5-42.75-17.25-24-17.25-24l-34,16.25s-25.5,22.75-27.75,35,6.75,23.5,6.75,26.25C218.06,278.82,208.67,323.08,205.41,339.94Z" fill="#92e3a9" stroke="#263238" stroke-linecap="round" stroke-linejoin="round"/><path d="M273.7,276.72s12.89-9.53,13.92-10.05" fill="none" stroke="#263238" stroke-linecap="round" stroke-linejoin="round"/><line x1="271.12" y1="281.11" x2="285.3" y2="278.01" fill="none" stroke="#263238" stroke-linecap="round" stroke-linejoin="round"/><polygon points="233.81 196.55 236.81 202.8 263.81 184.8 256.56 174.8 232.56 194.8 233.81 196.55" fill="#263238" stroke="#263238" stroke-linecap="round" stroke-linejoin="round"/><path d="M260.46,182.19l-26.12,18.33a3.84,3.84,0,0,0-1.34,4.63l5.31,12.79a3.35,3.35,0,0,0,4.83,1.57L273.44,201a3.35,3.35,0,0,0,.94-4.85l-9.86-13.26A3,3,0,0,0,260.46,182.19Z" fill="#92e3a9" stroke="#263238" stroke-linecap="round" stroke-linejoin="round"/><path d="M195.13,142.06s.86,12,3.44,17.18,6.87,10.3,5.58,12.45-3.44,7.3-.43,9.45a8.1,8.1,0,0,0,5.58,1.71s7.43,18,12.55,19c8.89,1.82,22.66-14.28,24-14.71s12.45-8.16,13.31-18-4.3-24-8.59-25.76-13.31.43-21-2.57S196.85,130.47,195.13,142.06Z" fill="#fff" stroke="#263238" stroke-linecap="round" stroke-linejoin="round"/><path d="M208.87,163.53l1.29,3.87a7.4,7.4,0,0,0,7.73-3" fill="none" stroke="#263238" stroke-linecap="round" stroke-linejoin="round"/><path d="M205.68,157.61s2.22-3.84,9.5-1.82" fill="none" stroke="#263238" stroke-linecap="round" stroke-linejoin="round"/><path d="M212.55,185.5a8.39,8.39,0,0,0,4-1.42" fill="none" stroke="#263238" stroke-linecap="round" stroke-linejoin="round"/><path d="M192.13,117.16s-8.59,9-7.3,16.32,10.73,14.17,15.88,14.17,8.16-1.29,14.6-1.29,13.31,4.72,15.89,7.3,6,6,8.16,2.57.86-6.44,9.44-5.58,6.87,14.17,3.87,20.61-5.15,9.88-8.59,9.88-8.16-2.15-5.58,1.71,10.3,12.88,27.91,9.45,23.18-18,23.18-26.62-6-21.47-10.3-30.49-12.88-27.91-33.92-33.92S200.71,103,192.13,117.16Z" fill="#263238" stroke="#263238" stroke-linecap="round" stroke-linejoin="round"/><path d="M239.42,159.43s-.4-8.49,4.65-10.1,10.1,1.41,10.31,7.47-.61,12.33-2.83,14.55-8.29.41-8.29.41" fill="#fff" stroke="#263238" stroke-linecap="round" stroke-linejoin="round"/><path d="M258.06,221.55s-12.25,9-14.75,20-8.5,42.25-8.5,42.25-4-.5-4,.5a18.86,18.86,0,0,1-1,3.75s-3.25,0-3.5,1.25-27-12.5-33.75-17-15.25-10.75-16.75-12.75a113,113,0,0,0-9.5-10.75c-2.75-2.5-8.25-6-9.25-6.75s-2.5-7.25-4.75-6.25-1.75,5.5-.75,7.25,5,9,5,9-8.5.75-10.25,2-2.75,5.5-.75,7,6.5,2,6.5,2,1.25,6.25,3.75,8,6.75,3.5,9,4.5,10,1.25,10,1.25,10.5,11.75,17.75,19,35.75,27.75,40,29.25,9.25-1.75,11-4.25,31-43.75,38-57.5" fill="#fff" stroke="#263238" stroke-linecap="round" stroke-linejoin="round"/><path d="M258.06,221.55s-12.25,9-14.75,20-8.5,42.25-8.5,42.25-4-.5-4,.5a18.86,18.86,0,0,1-1,3.75s-3.25,0-3.5,1.25c-.12.58-6.08-2.14-13.08-5.66l-11.07,20.27c11.25,8.8,27.29,20,30.4,21.14,4.25,1.5,9.25-1.75,11-4.25s32.38-44.64,40-59" fill="#92e3a9" stroke="#263238" stroke-linecap="round" stroke-linejoin="round"/><path d="M177.31,240.55s-3.25,8.75-4.75,9.5-3,.5-4-1.75,2.25-9.25,2.25-9.25,1-3.25,4-3.25,3.25,2.25,3.25,2.25Z" fill="#fff" stroke="#263238" stroke-linecap="round" stroke-linejoin="round"/></g></g></svg>