<svg xmlns="http://www.w3.org/2000/svg" viewBox="0 0 688.48 509.49"><g id="Layer_2" data-name="Layer 2"><g id="Layer_1-2" data-name="Layer 1"><rect x="45.46" y="506.93" width="643.02" height="2.56" fill="#5e3b3b"/><path d="M113.08,445.13C53,427.13-36.21,329.57,15.52,248.9c43.75-68.22,115-48.54,184-97.34,39.5-28,46.69-54.71,75.17-83.81C317.26,24.25,371.54-2.94,431.79.25,788.07,5.9,848.3,608.6,113.08,445.13Z" fill="#c4e8e8"/><path d="M512.14,337.71l12.58,5.73c.52-.52,1-1,1.58-1.52a27.28,27.28,0,0,1,2.42-1.93c8.34-5.83,19.75-8.36,28.78-3.69,5.93,3.08,10.6,9,17.22,9.85,10.84,1.37,18.14-11.27,28.55-14.6,11.84-3.78,25.65,5.17,36.76-.42,8.9-4.49,11.05-16.31,8.23-26.11a28.92,28.92,0,0,0-1.41-3.85,39.24,39.24,0,0,0-61.1-13.74c-9.73,8.24-16.1,21.57-28.44,24.81-6,1.56-12.33.37-18.41,1.43-5.23.92-10.81,4.28-15.73,9a52.39,52.39,0,0,0-10.11,13.25C512.74,336.49,512.43,337.1,512.14,337.71Z" fill="#53bc91"/><path d="M516.11,339.91l-1.45-1.44q.8-.8,1.62-1.56a61,61,0,0,1,5.19-4.36c4.81-3.61,10.37-5.92,15.75-8.15l2.2-.92c7.91-3.32,15.3-2.31,22.44-1.33,6.94,1,14.13,1.94,21.86-1.12,5.67-2.24,10.26-6.27,14.7-10.17,5.37-4.71,10.93-9.58,18.39-11.33,8.54-2,22.21,1.62,31.75,4.51l-.6,2c-5.36-1.63-21.7-6.59-30.68-4.47-7,1.62-12.09,6.11-17.51,10.87-4.57,4-9.3,8.16-15.3,10.53-8.23,3.26-15.68,2.24-22.89,1.25s-14-1.92-21.37,1.19l-2.2.92c-5.51,2.28-10.71,4.44-15.31,7.89a62.46,62.46,0,0,0-5,4.23C517.13,338.9,516.62,339.41,516.11,339.91Z" fill="#fff"/><path d="M525.82,254.51c.64,9.76.7,21.85-7.91,26.48-3.54,1.9-7.82,2-11.42,3.75-6.11,3-8.89,10.4-9,17.21a254.92,254.92,0,0,0,1.68,27.61c.08.8.16,1.59.25,2.36l21.75,9.91c.11-.69.21-1.4.29-2.11.25-2,.43-4.17.61-6.35.29-3.56.57-7.23,1.08-10.74,1.53-10.5,5.21-19.51,17.86-19.27,5.45.1,10.88,3.42,16.09,1.81,8.22-2.55,8.39-13.9,12.26-21.58,3.62-7.2,11.26-11.61,19-13.73s15.93-2.34,23.91-3.5c17.59-2.58,34.91-10.21,46.45-23.71s16.36-33.32,9.52-49.72S641.88,165.71,625,171.16c-18.06,5.81-29.37,27-48.26,28.71-7.06.63-14.14-1.7-21.19-1.05-11.64,1.1-21.29,10.39-25.78,21.18S525.08,242.86,525.82,254.51Z" fill="#53bc91"/><path d="M509.31,333.26l-2-.52c.72-2.74,1.32-5.71,1.95-8.85,2.09-10.4,4.46-22.18,12.33-28.21,17.43-13.37,21.14-26.21,24.72-38.62,3.41-11.8,6.63-22.94,22.1-31.8,5-2.84,14.33-3.64,25.18-4.58,25.14-2.16,59.58-5.12,69.8-35.09l1.93.66c-10.64,31.23-45.85,34.26-71.56,36.47-10.61.91-19.77,1.7-24.34,4.32-14.74,8.44-17.71,18.7-21.14,30.59-3.51,12.14-7.49,25.89-25.44,39.67-7.26,5.57-9.55,16.95-11.57,27C510.65,327.47,510.05,330.47,509.31,333.26Z" fill="#fff"/><path d="M612.48,267.37l-.3-2c19.06-2.79,35.33-11.08,45.82-23.35l1.56,1.33C648.74,256,632,264.5,612.48,267.37Z" fill="#5e3b3b"/><path d="M522,343.32l-23.5-10.71-.31-2.93a260.64,260.64,0,0,1-1.68-27.74c.08-6.51,2.63-14.69,9.55-18.12A26.33,26.33,0,0,1,511.8,282a23.43,23.43,0,0,0,5.63-1.87l1,1.8a25,25,0,0,1-6.11,2.05,25.38,25.38,0,0,0-5.33,1.71c-6.1,3-8.34,10.41-8.41,16.32a259.25,259.25,0,0,0,1.66,27.49l.19,1.78,20,9.1c0-.25.07-.5.1-.74.26-2.21.46-4.53.6-6.31l.07-.91c.27-3.27.55-6.65,1-9.9,1.38-9.48,4.77-20.32,18.72-20.15h.17a30.42,30.42,0,0,1,6.72,1.17c3.18.81,6.19,1.57,9,.69,5.16-1.6,6.89-7.18,8.72-13.08a51.9,51.9,0,0,1,2.94-8l1.83.93a51.22,51.22,0,0,0-2.82,7.65c-1.9,6.15-3.87,12.52-10.06,14.44-3.41,1.05-6.84.18-10.15-.66a28.21,28.21,0,0,0-6.26-1.11h-.15c-12.3-.15-15.34,9.21-16.68,18.4-.46,3.18-.74,6.53-1,9.77l-.07.9c-.15,1.8-.34,4.15-.61,6.39-.09.73-.19,1.46-.31,2.16Z" fill="#5e3b3b"/><path d="M524.8,254.58c-.69-10.88-.77-23.54,4-35,5.09-12.2,15.54-20.75,26.63-21.79a51.69,51.69,0,0,1,10.86.52,51.2,51.2,0,0,0,10.34.52l.18,2a52.1,52.1,0,0,1-10.76-.53,50.69,50.69,0,0,0-10.43-.52c-10.34,1-20.13,9-24.93,20.55-4.6,11.05-4.52,23.42-3.84,34.06Z" fill="#5e3b3b"/><path d="M671.44,219.09l-2-.41a43.17,43.17,0,0,0-2.08-25.35c-6.92-16.61-26.19-26.32-42.08-21.2-7.91,2.55-14.65,8.26-21.17,13.78-2.4,2-4.87,4.12-7.37,6l-1.24-1.63c2.46-1.87,4.91-3.95,7.29-6,6.67-5.65,13.57-11.5,21.86-14.17,16.87-5.43,37.29,4.81,44.6,22.36A45.14,45.14,0,0,1,671.44,219.09Z" fill="#5e3b3b"/><path d="M574.6,347.17c-4.46-.57-8.05-3.28-11.53-5.89a43.19,43.19,0,0,0-6-4.07l.94-1.81a45.37,45.37,0,0,1,6.33,4.24c3.41,2.57,6.63,5,10.55,5.5Z" fill="#5e3b3b"/><path d="M640.49,332l-.92-1.82c8.52-4.3,10.33-15.79,7.71-24.92a28.37,28.37,0,0,0-1.36-3.71,38.21,38.21,0,0,0-59.51-13.38l-1.32-1.56a40.26,40.26,0,0,1,62.69,14.1,29.76,29.76,0,0,1,1.46,4C652.1,314.67,650,327.24,640.49,332Z" fill="#5e3b3b"/><path d="M296.26,251.37c8.55-.48,19.14-.44,23.12,7.14,1.63,3.11,1.65,6.86,3.19,10,2.6,5.38,9,7.87,15,8a221.44,221.44,0,0,0,24.18-1.25l2.07-.2,8.84-19c-.6-.1-1.22-.19-1.84-.27-1.78-.23-3.65-.41-5.56-.58-3.11-.29-6.32-.56-9.39-1-9.18-1.43-17-4.72-16.73-15.79.13-4.77,3.08-9.5,1.71-14.07-2.16-7.21-12.09-7.46-18.78-10.91-6.28-3.22-10.08-9.95-11.88-16.77s-1.92-14-2.87-21c-2.12-15.41-8.66-30.63-20.39-40.85s-29-14.58-43.44-8.72-24,22.91-19.41,37.76c4.95,15.85,23.44,25.92,24.75,42.47.5,6.18-1.59,12.36-1.08,18.54.87,10.19,8.92,18.71,18.33,22.73S286.05,251.93,296.26,251.37Z" fill="#53bc91"/><path d="M365.07,266.45l-.47,1.73c-2.4-.65-5-1.2-7.74-1.78-9.08-1.91-19.37-4.08-24.6-11-11.56-15.36-22.77-18.71-33.61-21.95-10.3-3.08-20-6-27.65-19.59-2.45-4.36-3.08-12.57-3.81-22.08-1.7-22-4-52.2-30.17-61.38l.59-1.69c27.26,9.57,29.63,40.41,31.36,62.93.72,9.3,1.33,17.32,3.59,21.34,7.27,13,16.23,15.65,26.61,18.75,10.59,3.17,22.61,6.76,34.53,22.59,4.81,6.4,14.76,8.49,23.53,10.34C360,265.23,362.63,265.78,365.07,266.45Z" fill="#fff"/><path d="M308.2,175.62l-1.77.24c-2.3-16.7-9.43-31-20.08-40.29l1.17-1.35C298.5,143.79,305.85,158.49,308.2,175.62Z" fill="#5e3b3b"/><path d="M374,255.44l-9.56,20.49-2.57.25a227.28,227.28,0,0,1-24.29,1.24c-5.7-.12-12.84-2.41-15.79-8.5a23.85,23.85,0,0,1-1.59-5.05,20.7,20.7,0,0,0-1.58-4.94l1.58-.83a21.84,21.84,0,0,1,1.75,5.36,22,22,0,0,0,1.45,4.68c2.6,5.36,9.05,7.39,14.22,7.49a223.86,223.86,0,0,0,24.08-1.24l1.55-.15,8.13-17.42-.65-.09c-1.93-.24-4-.43-5.52-.57l-.79-.07c-2.86-.26-5.82-.53-8.66-1-8.28-1.29-17.75-4.34-17.49-16.55a.61.61,0,0,1,0-.14,25.83,25.83,0,0,1,1.07-5.88c.73-2.78,1.43-5.4.68-7.91-1.36-4.53-6.23-6.09-11.39-7.73a45.78,45.78,0,0,1-6.95-2.64l.82-1.59a44,44,0,0,0,6.68,2.52c5.37,1.72,10.92,3.49,12.55,8.92.9,3,.11,6-.66,8.88a24.68,24.68,0,0,0-1,5.47.62.62,0,0,0,0,.13c-.23,10.77,7.94,13.5,16,14.75,2.78.43,5.71.7,8.54,1l.79.08c1.57.13,3.63.33,5.59.58.64.08,1.27.18,1.89.28Z" fill="#976063"/><path d="M296.31,252.27c-9.52.52-20.61.48-30.58-3.77C255.09,244,247.68,234.73,246.86,225a44.77,44.77,0,0,1,.54-9.49,44.38,44.38,0,0,0,.54-9.05l1.79-.14a46.06,46.06,0,0,1-.55,9.41,43.71,43.71,0,0,0-.54,9.12c.77,9.07,7.76,17.7,17.79,22,9.64,4.11,20.46,4.14,29.78,3.63Z" fill="#5e3b3b"/><path d="M266.41,123.63l-.38,1.75a37.72,37.72,0,0,0-22.2,1.61c-14.6,5.93-23.25,22.72-18.89,36.67,2.16,6.94,7.11,12.89,11.89,18.64,1.75,2.11,3.57,4.3,5.22,6.5l-1.43,1.07c-1.63-2.16-3.43-4.33-5.17-6.42-4.89-5.89-9.95-12-12.22-19.25-4.62-14.81,4.5-32.61,19.92-38.86A39.39,39.39,0,0,1,266.41,123.63Z" fill="#5e3b3b"/><path d="M527.4,123.5V498.06a9.46,9.46,0,0,1-9.47,9.47H333.82a9.48,9.48,0,0,1-9.48-9.47V123.5a9.48,9.48,0,0,1,9.48-9.48H517.93A9.47,9.47,0,0,1,527.4,123.5Z" fill="#5e3b3b"/><path d="M518.81,123.5V498.06a9.46,9.46,0,0,1-9.47,9.47H325.23a9.47,9.47,0,0,1-9.47-9.47V123.5a9.47,9.47,0,0,1,9.47-9.48H509.34A9.47,9.47,0,0,1,518.81,123.5Z" fill="#ce4d5a"/><path d="M509.13,154.8V465.86c0,6.33-4.81,11.47-10.74,11.47H336.33c-5.93,0-10.73-5.14-10.73-11.47V154.8c0-6.34,4.8-11.47,10.73-11.47H498.39C504.32,143.33,509.13,148.46,509.13,154.8Z" fill="#fff"/><path d="M442.69,127.64H391.52a1.43,1.43,0,0,0,0,2.85h51.17a1.43,1.43,0,0,0,0-2.85Z" fill="#5e3b3b"/><path d="M377.94,483.3l-19.75-19.76,17.18-14.06L391.64,469s1.17,2.61-2.37,9.25S377.94,483.3,377.94,483.3Z" fill="#fcb47e"/><path d="M380.1,498.21l45.35-25.85a3.13,3.13,0,0,0,1.06-4.46l0,0c-.24-.33-.48-.66-.74-1a8.27,8.27,0,0,0-2.85-2.57c-3.78-1.62-8.69-.55-17.82.74a69.12,69.12,0,0,1-13.5.44,1.66,1.66,0,0,0-1.68,1.21c-4,13.88-10.53,15.15-14.25,12.48-2.83-2.05-4.29-.46-4.32.63-.07,3.4,3.31,11.27,5.11,15.17.18.43.35.81.5,1.13l.55,1.15A1.83,1.83,0,0,0,380.1,498.21Z" fill="#4f3737"/><path d="M405.66,466.5a7.18,7.18,0,0,0-.15-1.56l-.88.19s.77,3.75-1.62,5.63l.55.71A6.08,6.08,0,0,0,405.66,466.5Z" fill="#fff"/><path d="M410.59,466.05a7.18,7.18,0,0,0-.15-1.56l-.88.19s.77,3.75-1.62,5.63l.55.71A6.08,6.08,0,0,0,410.59,466.05Z" fill="#fff"/><path d="M388.31,479.12l-.69-.58c-.06.07-5.83,6.8-11.54,3.7l-.43.79C382,486.49,388.25,479.2,388.31,479.12Z" fill="#fff"/><rect x="381.46" y="484.26" width="30.42" height="0.91" transform="translate(-185.55 253.82) rotate(-29.07)" fill="#fff"/><rect x="412.93" y="473.23" width="7.19" height="0.91" transform="translate(-177.66 261.99) rotate(-29.06)" fill="#fff"/><path d="M323.74,421.4c8.49-50.2-70.41-49.08-76.61-52.21-6.41-3.22-60.74-38.4-81.17-72.77-8.86-14.91-27.66-25.45-46.4-30.12-10.67-.23-39.87,2.06-58,31.58v46L109,430.62l114.54,29.67,73.4-6.35L320,432.35Z" fill="#fba937"/><path d="M142,376.69c-34.58-8.6-51.31-41.06-51.48-41.38l1.34-.68c.16.32,16.61,32.17,50.5,40.61Z" fill="#f98b38"/><path d="M137,376.86c-16.36,0-29.7-8.8-29.84-8.89l.83-1.25c.15.1,15.1,9.94,32.53,8.5l.12,1.49C139.39,376.81,138.18,376.86,137,376.86Z" fill="#f98b38"/><path d="M199.84,129.06c7.95-6.45,15.27-14.23,18.71-23.87s2.26-21.44-5-28.66c-5.92-5.89-14.9-7.88-23.19-7S174.3,74,166.9,77.9C152.73,85.27,70.34,136.36,99,153.18,126.56,169.37,178.54,146.34,199.84,129.06Z" fill="#c4e8e8"/><circle cx="500.1" cy="459.83" r="46.74" transform="translate(-120.37 183.14) rotate(-18.56)" fill="#ffc457"/><circle cx="500.1" cy="459.83" r="33.63" transform="translate(-170.8 352.86) rotate(-33.54)" fill="#ffe9ab"/><path d="M477.52,501.85a47.7,47.7,0,1,1,47.34-82.79l-1,1.63a45.79,45.79,0,1,0,.42,78l1,1.63a47.73,47.73,0,0,1-47.78,1.52Z" fill="#7c4a4a"/><path d="M537.91,488.92l-1.51-1.17a45.3,45.3,0,0,0,8.65-19.22,45.82,45.82,0,0,0-8.65-36.59l1.52-1.17a47.77,47.77,0,0,1,9,38.12A47.27,47.27,0,0,1,537.91,488.92Z" fill="#7c4a4a"/><path d="M492.39,480.94a11.26,11.26,0,0,1-6.18-5,11.12,11.12,0,0,1-1-7.72l.59-3,8.08,1.57-.67,3.5q-.78,4,3.65,4.88t5.24-3.3a7.74,7.74,0,0,0-.66-5,24.21,24.21,0,0,0-4.81-6,28.3,28.3,0,0,1-6.05-7.95,12.12,12.12,0,0,1-.77-7.28,11,11,0,0,1,3.66-6.62,11.35,11.35,0,0,1,7.43-2.33l.78-4,7,1.35-.78,4a10.34,10.34,0,0,1,7.08,12.6l-.26,1.32-8.08-1.56.34-1.79c.53-2.72-.63-4.37-3.48-4.92s-4.54.5-5,3.14a7.18,7.18,0,0,0,.71,4.69,26.34,26.34,0,0,0,4.81,6,28.45,28.45,0,0,1,6,8.05,12.43,12.43,0,0,1,.74,7.44A11.41,11.41,0,0,1,507,480a11.28,11.28,0,0,1-7.59,2.33l-.89,4.62-7-1.35Z" fill="#ffc457"/><path d="M481.77,424.37a16.54,16.54,0,0,1,2.89,10.51h0A16.51,16.51,0,0,1,495,431.49h0A16.54,16.54,0,0,1,492.14,421h0A16.65,16.65,0,0,1,481.77,424.37Z" fill="#fff9ee"/><path d="M501.5,491.68a9.59,9.59,0,0,1,1.67,6.11h0a9.61,9.61,0,0,1,6-2h0a9.66,9.66,0,0,1-1.68-6.11h0A9.57,9.57,0,0,1,501.5,491.68Z" fill="#fff9ee"/><rect x="553.37" y="489.98" width="90.67" height="17.55" fill="#ffc457"/><rect x="572.46" y="470.58" width="90.67" height="17.55" fill="#ffc457"/><rect x="553.43" y="451.25" width="90.67" height="17.55" fill="#ffc457"/><rect x="633.6" y="451.25" width="1.91" height="17.55" fill="#7c4a4a"/><rect x="624.05" y="451.25" width="1.91" height="17.55" fill="#7c4a4a"/><rect x="595.41" y="451.25" width="1.91" height="17.55" fill="#7c4a4a"/><rect x="576.32" y="451.25" width="1.91" height="17.55" fill="#7c4a4a"/><rect x="652.63" y="470.58" width="1.91" height="17.55" fill="#7c4a4a"/><rect x="643.09" y="470.58" width="1.91" height="17.55" fill="#7c4a4a"/><rect x="614.45" y="470.58" width="1.91" height="17.55" fill="#7c4a4a"/><rect x="604.9" y="470.58" width="1.91" height="17.55" fill="#7c4a4a"/><rect x="595.35" y="489.98" width="1.91" height="17.55" fill="#7c4a4a"/><rect x="576.26" y="489.98" width="1.91" height="17.55" fill="#7c4a4a"/><rect x="566.71" y="489.98" width="1.91" height="17.55" fill="#7c4a4a"/><rect x="553.42" y="468.69" width="90.19" height="1.91" fill="#7c4a4a"/><rect x="572.52" y="488.21" width="90.61" height="1.91" fill="#7c4a4a"/><path d="M579.43,476.71a16.82,16.82,0,0,1,7.63,8h0a16.86,16.86,0,0,1,7.63-8h0a16.77,16.77,0,0,1-7.63-8h0A16.9,16.9,0,0,1,579.43,476.71Z" fill="#fff9ee"/><path d="M610.07,499.44a9.52,9.52,0,0,1,4.37,4.58h0a9.61,9.61,0,0,1,4.38-4.59h0a9.61,9.61,0,0,1-4.38-4.59h0A9.61,9.61,0,0,1,610.07,499.44Z" fill="#fff9ee"/><path d="M629.23,460.76a9.7,9.7,0,0,1,4.37,4.58h0a9.67,9.67,0,0,1,4.37-4.59h0a9.61,9.61,0,0,1-4.37-4.58h0A9.68,9.68,0,0,1,629.23,460.76Z" fill="#fff9ee"/><rect x="662.18" y="470.58" width="1.91" height="19.54" fill="#7c4a4a"/><path d="M222.18,350.49s77.95,10.56,89.48,14.68c13.7,4.9,82.18,83.41,82.18,83.41l-30.24,26.6-75.25-67.75L262,411.69l-34.46-5.38s-18.52-6.44-23.87-6.82c-16.76-1.22-45.21,8.68-57.91-15.31l61.94-42.95Z" fill="#7c4a4a"/><path d="M87.71,244.28c4.39-.36,7.26-.3,8-.35.92-.07,1.78-1.13,3.25-1.83,3.36-1.6,9.86-4.11,14.4-3.14.58.12.65.86-.21,1.09-1.53.46-4.14.85-4,1.25.28.83,7.3-1.57,7.75.26.34,1.38-8.18,2.15-8.11,2.56.12.83,7.57-1.46,8,.32s-6.63,1.25-6.69,1.86,5.47-.17,5.77,1c.46,1.72-8.66,1.79-8.86,2.5-.36,1.13,4.31,1.16,4.11,2.63s-6.21.53-7.39.43c-2.74-.22-4-1.61-7.25,0-1.8.87-3.58,1.74-5.36,2.63Z" fill="#fcb47e"/><path d="M154.75,275.79c-12.07-7-16.48-15-16.48-15l-20.88,3.64S124.07,277,123,288.94c-.76,8.15,11.53,14.76,30.29,14.16S160.24,279,154.75,275.79Z" fill="#fcb47e"/><path d="M378.88,461.87l-1,.88c-12.8-14.54-60.27-67.4-78.65-73.32-5.48-1.77-17.83-1.33-32.11-.83-25.44.9-57.07,2-76.51-7.22a13.44,13.44,0,0,1,1-1c19.18,8.89,50.37,7.78,75.47,6.9,15-.53,26.87-.95,32.58.89C318.59,394.27,366,447.14,378.88,461.87Z" fill="#5e3b3b"/><path d="M223.45,351.52l-2.23,0a77.71,77.71,0,0,1-12.72-1c.19-.42.37-.84.55-1.26a78.37,78.37,0,0,0,12.49,1l.64.4,1.24.1Z" fill="#5e3b3b"/><path d="M140.72,388s56.68,2.13,72.13-49.07c0,0-23.09-10.34-35.27-51.61,0,0-7.53-25.8-23.94-24l-8.6,5.46s7.85,6.51,5.28,10.33c-3.19,4.73-23.6-2.21-23.6-2.21s-10.38-2.77-17.15-.13c0,0,12.79,31.83-14.14,41.2C95.43,317.92,123,346.7,140.72,388Z" fill="#fff"/><path d="M169.08,393.92c-37.11-15.77-63-78.87-63.29-79.51l1.23-.5c.26.63,26,63.23,62.58,78.78Z" fill="#c4e8e8"/><path d="M178.21,289.36l-26.56-24.85c.07-.12,10.07-14,13.5-21.84,5.84-13.34.95-24.59-10.31-12.08-3.58,4-10.8,11.91-10.8,11.91l-16.91-11.9s7.52-10.79,11.78-15.66c15.85-18.12,29.54-22.39,42-17.88a21.91,21.91,0,0,1,13.36,13.4c4,10.67,3.73,26-3.07,48.39A176.41,176.41,0,0,1,178.21,289.36Z" fill="#fff"/><path d="M194.7,381.65l-.4,1.27a28.47,28.47,0,0,1-8.21-4.45l0,0,1.1-.84.07.06A27.72,27.72,0,0,0,194.7,381.65Z" fill="#5e3b3b"/><path d="M137.22,225.88s20.57,32.38,10.43,36.83-21.8,3.56-24.87,2.05-7.73-12-7.73-12-7.42-14.45-2.29-19.92S129.52,216.76,137.22,225.88Z" fill="#fcb47e"/><path d="M111.11,262.15l7,5.73c2.8-1.69,6-7.06,5.31-10.52,0,0,9.07-4.73,4.64-16.52,0,0,16.41-6.57,11-20.93-2.67-7.11-15.65-7.6-24.22-1.2a34.83,34.83,0,0,0-13.06,20C94.09,245.17,106.58,258.44,111.11,262.15Z" fill="#5e3b3b"/><path d="M120.82,256.11a4.41,4.41,0,1,0,2.41-5.75A4.4,4.4,0,0,0,120.82,256.11Z" fill="#fcb47e"/><path d="M178.06,291.09c0-.17-2.87-16.68-12.78-23.46a16.91,16.91,0,0,0-13.49-2.47l-.27-1.3A18.21,18.21,0,0,1,166,266.53c10.37,7.11,13.22,23.64,13.33,24.34Z" fill="#c4e8e8"/><path d="M125.64,242.9l-.34-1.26c.09,0,9.5-2.61,14-7.69a9.55,9.55,0,0,0,2.05-8.37,11.77,11.77,0,0,0-5.85-8.17l.58-1.16a13.12,13.12,0,0,1,6.55,9.08,10.86,10.86,0,0,1-2.36,9.48C135.51,240.19,126,242.79,125.64,242.9Z" fill="#5e3b3b"/><path d="M145.86,282c-7.91.79-21.56-4.8-23.5-5.61l.51-1.23c6.52,2.74,24,8.72,26.87,3.55,1.64-3-2.18-6.82-2.22-6.85l.93-.95c.19.18,4.58,4.54,2.45,8.44C150,281,148.19,281.79,145.86,282Z" fill="#c4e8e8"/><path d="M374.65,465.59l-11,9.73-37-33.34-38.23-34.42L262,411.83l-34.45-5.38S209,400,203.64,399.62a53.67,53.67,0,0,0-6.61,0l-8.95-14.31s22.94-.55,49.75,10c6.47,2.55,17,6.45,27.28,6.36,11.72-.1,24.77-6.28,30.82-4.42,8.09,2.48,15.54,11.85,25.13,23.93S342.31,447.9,354.28,459C362.78,466.87,374.65,465.59,374.65,465.59Z" fill="#683e3e"/><path d="M319,435.63c-13.22,45.78-38.31,65.67-49.5,72.55a2.12,2.12,0,0,1-1.09.31H106.12a2,2,0,0,1-1.09-.31c-12.59-7.73-42.75-31.93-53.85-90.88a295.94,295.94,0,0,1-4.72-46c-1-34.59,5.49-57.85,15.1-73.48,0,0,14.38,68.57,52.47,80.06,30.95,9.35,65.46-2.67,97.23,11.1a57.62,57.62,0,0,1,21.11,16c5.93,7.11,8.88,14.83,17.44,19.65,9.78,5.5,22.62,5.18,33.59,5.35a136.47,136.47,0,0,0,28.09-2.62A6.56,6.56,0,0,1,319,435.63Z" fill="#ffc457"/><path d="M339.77,493.72l-6.92-27.07,24.28,11.07,1.72,10.66s-.32,2.84-6.75,6.75S339.77,493.72,339.77,493.72Z" fill="#fcb47e"/><path d="M334,507.65l52.19.88a3.13,3.13,0,0,0,3.19-3.3v-.06c0-.41-.07-.81-.12-1.23a8.24,8.24,0,0,0-1.16-3.66c-2.42-3.32-7.19-4.9-15.7-8.45a68.28,68.28,0,0,1-11.84-6.5,1.65,1.65,0,0,0-2.06.19c-10.5,9.91-16.79,7.66-18.62,3.46-1.39-3.2-3.46-2.57-4-1.65-1.79,2.88-2.89,11.38-3.34,15.65-.06.46-.11.88-.14,1.23-.07.79-.11,1.27-.11,1.27A1.82,1.82,0,0,0,334,507.65Z" fill="#4f3737"/><path d="M372.18,493.4a8.62,8.62,0,0,0,.67-1.42l-.86-.29s-1.25,3.63-4.26,4l.11.89A6.05,6.05,0,0,0,372.18,493.4Z" fill="#fff"/><path d="M376.65,495.52a7.87,7.87,0,0,0,.67-1.42l-.86-.28s-1.25,3.62-4.26,4l.11.9A6.06,6.06,0,0,0,376.65,495.52Z" fill="#fff"/><path d="M350.82,495.41l-.3-.85c-.08,0-8.48,2.88-11.81-2.7l-.78.46C341.65,498.54,350.73,495.45,350.82,495.41Z" fill="#fff"/><rect x="354.71" y="489.27" width="0.91" height="30.42" transform="translate(-158.9 845.63) rotate(-88.42)" fill="#fff"/><rect x="377.41" y="501.52" width="0.91" height="7.19" transform="translate(-137.45 868.95) rotate(-88.43)" fill="#fff"/><rect x="339.17" y="211.1" width="155.86" height="111.85" rx="10.76" fill="#8ed1d0"/><polygon points="365.74 279.49 364.65 277.81 401.01 254.17 415.91 263.45 463.69 233.33 464.75 235.02 415.91 265.81 401.03 256.54 365.74 279.49" fill="#5e3b3b"/><polygon points="461.89 232.11 467.86 231.88 465.08 237.17 461.89 232.11" fill="#5e3b3b"/><rect x="364.44" y="288.1" width="12.29" height="14.07" fill="#ff6b57"/><rect x="387.7" y="272.67" width="12.29" height="29.5" fill="#fefefe"/><rect x="410.96" y="281.4" width="12.29" height="20.77" fill="#ff6b57"/><rect x="434.21" y="267.14" width="12.29" height="35.03" fill="#fefefe"/><rect x="457.47" y="250.39" width="12.29" height="51.78" fill="#fefefe"/><polygon points="480.46 302.54 352.74 302.54 352.74 238.34 354.74 238.34 354.74 300.54 480.46 300.54 480.46 302.54" fill="#5e3b3b"/><path d="M243.81,508.55H105.53c-12.27-7.39-43.1-31.45-54.35-91.18,16.46,21.57,32.43,43.78,62.64,45.86,44.08,3,63.86-8.2,104.36,23.86C226.75,493.87,243.81,508.55,243.81,508.55Z" fill="#fba937"/><path d="M201.82,509.15c-1.28-.94-2.62-1.82-4-2.63-11.76-6.93-25.51-9.16-38.62-10.55-2.55-.27-5.11-.51-7.67-.75-10.83-1-22-2.09-32.6-5.32-25.16-7.69-43.3-26.51-54.08-40.95-3.37-4.5-6.57-9.26-9.79-14.54l1.28-.78c3.2,5.24,6.37,10,9.71,14.43,10.65,14.25,28.54,32.83,53.31,40.4,10.44,3.19,21.56,4.25,32.32,5.26,2.56.25,5.13.49,7.68.76,13.27,1.4,27.21,3.68,39.22,10.75a46.36,46.36,0,0,1,4.11,2.72Z" fill="#f98b38"/><path d="M226.84,508.92c-4.7-7.5-12.76-13.69-22.1-17-12.88-4.55-26.8-4.11-39.92-3-3.44.31-6.95.7-10.34,1.09-9.95,1.13-20.24,2.29-30.36,1.24l.16-1.49c10,1,20.16-.12,30-1.24,3.4-.39,6.92-.79,10.38-1.09,13.29-1.17,27.4-1.61,40.55,3,9.66,3.41,18,9.83,22.88,17.62Z" fill="#f98b38"/><path d="M208.88,399.62c9.55,4,18,11.54,21,21.44.88,2.93,1,6.61-1.33,8.52-1.9,1.52-4.76,1.23-6.88,0s-3.68-3.16-5.29-5c-12.74-14.42-30.3-20-50.14-20.9-3.36-.15-16.07-.51-14.72-7.5C152.81,389.61,199.34,395.65,208.88,399.62Z" fill="#ffe9ab"/><g opacity="0.71"><polygon points="584.22 376.56 559.26 399.25 560.7 400.83 585.65 378.15 584.22 376.56" fill="#fff"/><rect x="564.32" y="397.3" width="20.68" height="2.14" transform="translate(-101.33 577.19) rotate(-49.55)" fill="#fff"/></g><g opacity="0.71"><polygon points="493.53 53.8 468.58 76.48 470.01 78.07 494.97 55.38 493.53 53.8" fill="#fff"/><rect x="473.63" y="74.54" width="20.68" height="2.14" transform="translate(112.44 394.84) rotate(-49.55)" fill="#fff"/></g><g opacity="0.71"><polygon points="255.97 278.18 231.02 300.86 232.46 302.45 257.41 279.76 255.97 278.18" fill="#fff"/><rect x="236.07" y="298.92" width="20.68" height="2.14" transform="translate(-141.74 292.87) rotate(-49.55)" fill="#fff"/></g><g opacity="0.77"><polygon points="346.28 38.61 339.42 50.5 353.14 50.5 346.28 38.61" fill="#fff"/></g><g opacity="0.77"><path d="M596.94,150.41H580.61l8.16-14.13Zm-13.73-1.5h11.13l-5.57-9.63Z" fill="#fff"/></g><g opacity="0.77"><path d="M673.5,284.14H657.18L665.34,270Zm-13.72-1.5h11.13L665.34,273Z" fill="#fff"/></g><g opacity="0.77"><path d="M31.22,293.86H15.76l7.73-13.38Zm-13.73-1h12l-6-10.38Z" fill="#fff"/></g><g opacity="0.77"><polygon points="143.19 117.59 136.33 129.48 150.05 129.48 143.19 117.59" fill="#fff"/></g><path d="M361.9,478.54l-12.25-.37-28.5-.85s-3.58-20.63-6.33-36.62c-.7-4.11-1.35-7.92-1.87-11l48.5,43.53Z" fill="#7c4a4a"/><path d="M361.9,478.54l-12.25-.37L314.82,440.7c-.7-4.11-1.35-7.92-1.87-11l48.5,43.53Z" fill="#683e3e"/><path d="M95.43,317.92s-36.1-12-55.88-39.31c-6.86-9.49-3.9-17.77-1.82-21.67,5.56-10.38,17.39-14.67,44.12-18,7.23-.89,14.33-1,14.33-1l2.42,17.83s-32.22,4.7-31.1,10.34c1.52,7.58,28.76,10.55,42.07,10.57C120.32,291.31,117.39,313.57,95.43,317.92Z" fill="#fff"/><path d="M99.92,319l-.57-1.2c.1,0,10.24-5,13.66-15.77,2.38-7.44,1-15.86-4-25l1.16-.64c5.23,9.51,6.62,18.29,4.13,26.09C110.67,313.75,100.36,318.83,99.92,319Z" fill="#c4e8e8"/><path d="M293.89,419.77c-26.36-7.39-59.38-11.48-59.71-11.53l.18-1.48c.33,0,33.47,4.15,59.94,11.56Z" fill="#f98b38"/><path d="M281.58,424.07c-13-6.48-42.48-10-42.78-10.05l.18-1.49c1.22.14,30.07,3.6,43.27,10.2Z" fill="#f98b38"/><path d="M326.58,442l-17.92-16.13s7.93-2.28,9-2.45,12.86,15.14,12.86,15.14Z" fill="#683e3e"/><rect x="336.55" y="418.89" width="1.3" height="65.16" transform="translate(-224.02 400.87) rotate(-48.09)" fill="#4f3737"/><path d="M98.1,320.61l-.73-1.11a27.53,27.53,0,0,0,9.42-13L108,307A28.35,28.35,0,0,1,98.1,320.61Z" fill="#c4e8e8"/><path d="M178.24,287.42l-1.31-.23a30.7,30.7,0,0,0-2.52-17.89l1.18-.62A31.52,31.52,0,0,1,178.24,287.42Z" fill="#c4e8e8"/><path d="M299.47,405.06a25.24,25.24,0,0,1-10.23,3.28l-.89-.78-2,.32,1.88-.78a16.88,16.88,0,0,0,6.34-6.18l1.16.65a17.32,17.32,0,0,1-4.52,5.16,26.83,26.83,0,0,0,7.63-2.84Z" fill="#4f3737"/></g></g></svg>