<svg xmlns="http://www.w3.org/2000/svg" xmlns:xlink="http://www.w3.org/1999/xlink" viewBox="0 0 460.13 432.44"><defs><clipPath id="clip-path" transform="translate(0 12.96)"><path d="M416.48,295.18s9.66,19.95,18.15,9.82-5.86-13.92-5.86-13.92,17.28,2.05,17.28-7.32-12.3-3.52-12.3-3.52,16-12.46,8.2-17.72c-5.42-3.66-18.45,9.56-18.45,9.56s5-12.92-.87-13.21S413,277.31,413,277.31s-3.22-13.81-9.07-9.83,4.6,19.32,4.6,19.32-7.53-7.44-9.58-2.17,9.58,8.79,9.58,8.79.08,19.32,6.52,17S416.48,295.18,416.48,295.18Z" fill="#92e3a9"/></clipPath><clipPath id="clip-path-2" transform="translate(0 12.96)"><path d="M387.12,243.73s-23.11,1-21.66-11.38C366.67,222,383,228.92,383,228.92s-13.42-15.65-4.2-21.83S393.53,219,393.53,219s5.88-26,16.19-21.85c7.18,2.92-4.51,24.47-4.51,24.47s13.59-9.27,17.75-3.7S407,235.4,407,235.4s15.72-6,15.67,2.44-22.05,8.22-22.05,8.22,12.29,2.51,8.45,8-15-3.63-15-3.63-15.05,10.89-17,3S387.12,243.73,387.12,243.73Z" fill="#92e3a9"/></clipPath><clipPath id="clip-path-3" transform="translate(0 12.96)"><path d="M240,12h0a6.58,6.58,0,0,1-6.53,5.75H199.11A6.58,6.58,0,0,1,192.58,12h0a6.58,6.58,0,0,0-6.53-5.75H161.89a6.58,6.58,0,0,0-6.58,6.58V248.88a6.59,6.59,0,0,0,6.58,6.58H271.8a6.58,6.58,0,0,0,6.58-6.58V12.8a6.57,6.57,0,0,0-6.58-6.58H246.51A6.58,6.58,0,0,0,240,12Z" fill="#92e3a9" stroke="#263238" stroke-linecap="round" stroke-linejoin="round"/></clipPath><clipPath id="clip-path-4" transform="translate(0 12.96)"><path d="M207.85,71.06l2.53-10.33,7,2.12,2.11,8.38a5.64,5.64,0,0,0,3,3.72,17.76,17.76,0,0,1,3,1.77s-8.34,10.69-24.35,0a16.36,16.36,0,0,1,3.42-1.91A5.52,5.52,0,0,0,207.85,71.06Z" fill="#fff" stroke="#263238" stroke-linecap="round" stroke-linejoin="round"/></clipPath><clipPath id="clip-path-5" transform="translate(0 12.96)"><path d="M73.66,173.19c2-4.86-2.89-19.56-5.08-25.59a2.27,2.27,0,0,0-3.65-.91c-2,1.77-4.39,5.21-4.79,11.59,0,0-15.25,26.87-15.25,39.13,0,11.49,22.71,35.42,22.71,35.42A10.61,10.61,0,0,0,73.66,228s-8.49-21-15.08-30C58.58,198,71.41,178.57,73.66,173.19Z" fill="#263238" stroke="#263238" stroke-linecap="round" stroke-linejoin="round"/></clipPath><clipPath id="clip-path-6" transform="translate(0 12.96)"><path d="M73.66,228s-3.52,14.56-2.13,46l.9,35.6s-5.06,25,4.65,70.26c0,0,3,6.7,15.09-1.68l1.38-69,12.65-76.27Z" fill="#999" stroke="#263238" stroke-linecap="round" stroke-linejoin="round"/></clipPath><clipPath id="clip-path-7" transform="translate(0 12.96)"><path d="M96.38,265.1c9,14.53,21.67,43.12,21.67,43.12s-1.91,3.31,0,8.86c0,0-5,19.31,2.25,65.48,0,0,6.24,4,15.26-3,0,0,4.5-69.4,2.77-78.76s-18-71.18-18-71.18H84.55" fill="#999" stroke="#263238" stroke-linecap="round" stroke-linejoin="round"/></clipPath><clipPath id="clip-path-8" transform="translate(0 12.96)"><path d="M101.12,139.6c8.93,1,24.5,3.15,23.57,27.16s-4.39,62.84-4.39,62.84S75.64,248.68,70.6,231c0,0,2.32-20-5.08-51.13S61.44,135.27,101.12,139.6Z" fill="#263238" stroke="#263238" stroke-linecap="round" stroke-linejoin="round"/></clipPath><clipPath id="clip-path-9" transform="translate(0 12.96)"><path d="M104.6,140s15.47.1,22.4,4.26c0,0,12.25-2.08,17.11,0l4.39-16.41s5.78-2.78,8.55,1.38c0,0,2.08,25-1.38,27s-30.94,8.31-30.94,8.31S107.15,159.36,104.6,140Z" fill="#263238" stroke="#263238" stroke-linecap="round" stroke-linejoin="round"/></clipPath></defs><g id="Layer_2" data-name="Layer 2"><g id="Background_Simple" data-name="Background Simple"><path d="M421.9,58.7v1.2a92.74,92.74,0,0,0-6.25-11.63A91,91,0,0,1,421.9,58.7Z" transform="translate(0 12.96)" fill="#92e3a9"/><line x1="45.88" y1="367.77" x2="26.82" y2="367.77" fill="none" stroke="#263238" stroke-linecap="round" stroke-linejoin="round"/><path d="M459.13,280.23c-2.72,34.39-10.91,62.35-28,83.74l-9.24-9.17h-376c-37.19-39-26.58-153.84,91.6-168C261.87,171.9,233.45,7,331.33,9c45.57.94,70.56,19.54,84.26,39.17a.1.1,0,0,1,0,.05l0,0A92.74,92.74,0,0,1,421.9,59.9C440.56,100.33,465.43,200.4,459.13,280.23Z" transform="translate(0 12.96)" fill="#92e3a9"/><path d="M459.13,280.23c-2.72,34.39-10.91,62.35-28,83.74l-9.24-9.17h-376c-37.19-39-26.58-153.84,91.6-168C261.87,171.9,233.45,7,331.33,9c45.57.94,70.56,19.54,84.26,39.17a.1.1,0,0,1,0,.05l0,0A92.74,92.74,0,0,1,421.9,59.9C440.56,100.33,465.43,200.4,459.13,280.23Z" transform="translate(0 12.96)" fill="#fff" opacity="0.7"/></g><g id="Shadow"><path d="M431.14,364c-27.24,34.1-83.24,51.3-169.35,54.87-112.42,4.66-163.87-16.33-215.91-64h376Z" transform="translate(0 12.96)" fill="#999"/></g><g id="Room"><line x1="0.5" y1="367.76" x2="417.54" y2="367.76" fill="none" stroke="#263238" stroke-linecap="round" stroke-linejoin="round"/><polyline points="421.9 57.53 421.9 367.76 449.47 395.33" fill="none" stroke="#263238" stroke-linecap="round" stroke-linejoin="round"/><g id="Lamp"><line x1="339.55" y1="75.9" x2="339.55" y2="21.96" fill="none" stroke="#263238" stroke-linecap="round" stroke-linejoin="round"/><path d="M316.27,86.22a23.28,23.28,0,1,1,46.55,0Z" transform="translate(0 12.96)" fill="none" stroke="#263238" stroke-linecap="round" stroke-linejoin="round"/></g></g><g id="Shelf"><rect x="103.15" y="243.53" width="19.99" height="124.24" fill="none" stroke="#263238" stroke-linecap="round" stroke-linejoin="round"/><rect x="15.23" y="252.75" width="80.77" height="30.17" fill="none" stroke="#263238" stroke-linecap="round" stroke-linejoin="round"/><rect x="15.23" y="286.21" width="80.77" height="30.17" fill="none" stroke="#263238" stroke-linecap="round" stroke-linejoin="round"/><rect x="15.23" y="319.68" width="80.77" height="30.17" fill="none" stroke="#263238" stroke-linecap="round" stroke-linejoin="round"/><path d="M47.12,242a3.36,3.36,0,0,0,3.37,3.36H60.75A3.36,3.36,0,0,0,64.12,242" transform="translate(0 12.96)" fill="none" stroke="#263238" stroke-linecap="round" stroke-linejoin="round"/><path d="M47.12,275.43a3.37,3.37,0,0,0,3.37,3.37H60.75a3.37,3.37,0,0,0,3.37-3.37" transform="translate(0 12.96)" fill="none" stroke="#263238" stroke-linecap="round" stroke-linejoin="round"/><path d="M47.12,308.9a3.36,3.36,0,0,0,3.37,3.36H60.75a3.36,3.36,0,0,0,3.37-3.36" transform="translate(0 12.96)" fill="none" stroke="#263238" stroke-linecap="round" stroke-linejoin="round"/><polyline points="99.88 367.77 8.7 367.77 8.7 243.53 99.88 243.53" fill="none" stroke="#263238" stroke-linecap="round" stroke-linejoin="round"/></g><g id="Chair"><path d="M177.77,294.49v47l24.61,8.67a1.56,1.56,0,0,1,1.05,1.48v1.46a1.57,1.57,0,0,1-2,1.5l-25.28-7.42-.46,6.07A1.66,1.66,0,0,1,174,354.8h-1.3a1.68,1.68,0,0,1-1.67-1.55l-.46-6.07-25.27,7.42a1.57,1.57,0,0,1-2-1.5v-1.46a1.56,1.56,0,0,1,1.05-1.48L169,341.49v-47" transform="translate(0 12.96)" fill="none" stroke="#263238" stroke-linecap="round" stroke-linejoin="round"/><line x1="166.54" y1="290.43" x2="166.54" y2="276.82" fill="none" stroke="#263238" stroke-linecap="round" stroke-linejoin="round"/><line x1="160.77" y1="276.82" x2="160.77" y2="290.43" fill="none" stroke="#263238" stroke-linecap="round" stroke-linejoin="round"/><path d="M141.54,261.43c-4.1-.16-7-2.83-7-7.42V230.16a7.46,7.46,0,0,1,4.75-6.61" transform="translate(0 12.96)" fill="none" stroke="#263238" stroke-linecap="round" stroke-linejoin="round"/><path d="M140.44,227.14v26.77c0,4.62,3.69,7.17,8.34,6.35a68.13,68.13,0,0,1,30.52,1.34c4.58,1.24,8.18-1,8.18-5.6V229.23a6.13,6.13,0,0,0-3.83-5.38,70.57,70.57,0,0,0-39.3-1.73A5.46,5.46,0,0,0,140.44,227.14Z" transform="translate(0 12.96)" fill="none" stroke="#263238" stroke-linecap="round" stroke-linejoin="round"/><path d="M159.32,279.44H146a8.55,8.55,0,0,0-8.54,8.54h0a3.91,3.91,0,0,0,3.91,3.91h15.48" transform="translate(0 12.96)" fill="none" stroke="#263238" stroke-linecap="round" stroke-linejoin="round"/><path d="M161.41,291.89h43.92a3.91,3.91,0,0,0,3.91-3.91h0a8.54,8.54,0,0,0-8.54-8.54H166A8.54,8.54,0,0,0,157.5,288h0A3.91,3.91,0,0,0,161.41,291.89Z" transform="translate(0 12.96)" fill="none" stroke="#263238" stroke-linecap="round" stroke-linejoin="round"/></g><g id="Desk"><path d="M368.2,209.61a2.18,2.18,0,0,0,2.11-1.91l4.38-40.77A1.68,1.68,0,0,0,373,165" transform="translate(0 12.96)" fill="none" stroke="#263238" stroke-linecap="round" stroke-linejoin="round"/><rect x="259.87" y="234.04" width="140.94" height="13.08" transform="translate(660.68 494.13) rotate(180)" fill="none" stroke="#263238" stroke-linecap="round" stroke-linejoin="round"/><polyline points="209.7 247 209.7 260.08 257.69 260.08" fill="none" stroke="#263238" stroke-linecap="round" stroke-linejoin="round"/><polyline points="405.34 245.61 405.34 237.43 267.91 237.43" fill="none" stroke="#263238" stroke-linecap="round" stroke-linejoin="round"/><rect x="205.17" y="224.46" width="60.56" height="8.18" transform="translate(470.9 470.07) rotate(180)" fill="none" stroke="#263238" stroke-linecap="round" stroke-linejoin="round"/><polyline points="393.16 262.27 393.16 367.76 396.21 367.76 397.31 262.27" fill="none" stroke="#263238" stroke-linecap="round" stroke-linejoin="round"/><polyline points="389.02 262.27 390.11 367.76 393.16 367.76 393.16 262.27" fill="none" stroke="#263238" stroke-linecap="round" stroke-linejoin="round"/><polyline points="352.86 262.27 352.86 367.76 355.91 367.76 357 262.27" fill="none" stroke="#263238" stroke-linecap="round" stroke-linejoin="round"/><polyline points="348.72 262.27 349.81 367.76 352.86 367.76 352.86 262.27" fill="none" stroke="#263238" stroke-linecap="round" stroke-linejoin="round"/><polyline points="257.64 262.27 257.64 367.76 260.7 367.76 261.79 262.27" fill="none" stroke="#263238" stroke-linecap="round" stroke-linejoin="round"/><polyline points="253.5 262.27 254.59 367.76 257.64 367.76 257.64 262.27" fill="none" stroke="#263238" stroke-linecap="round" stroke-linejoin="round"/><polyline points="217.34 262.27 217.34 367.76 220.39 367.76 221.48 262.27" fill="none" stroke="#263238" stroke-linecap="round" stroke-linejoin="round"/><polyline points="213.2 262.27 214.29 367.76 217.34 367.76 217.34 262.27" fill="none" stroke="#263238" stroke-linecap="round" stroke-linejoin="round"/><rect x="290.88" y="234.88" width="29.65" height="2.54" fill="none" stroke="#263238" stroke-linecap="round" stroke-linejoin="round"/><path d="M368.14,220.55H375a1.73,1.73,0,0,1,1.73,1.73v2.18a0,0,0,0,1,0,0H366.4a0,0,0,0,1,0,0v-2.18A1.73,1.73,0,0,1,368.14,220.55Z" transform="translate(743.15 457.98) rotate(180)" fill="none" stroke="#263238" stroke-linecap="round" stroke-linejoin="round"/><path d="M376.75,220.57c0-1.48-2.32-2.69-5.18-2.69s-5.17,1.21-5.17,2.69Z" transform="translate(0 12.96)" fill="none" stroke="#263238" stroke-linecap="round" stroke-linejoin="round"/><path d="M366.4,220.57c0-1.48,2.32-2.69,5.17-2.69v2.69Z" transform="translate(0 12.96)" fill="none" stroke="#263238" stroke-linecap="round" stroke-linejoin="round"/><path d="M366.06,209.61H308.25a1.68,1.68,0,0,1-1.7-1.91l4.38-40.77A2.18,2.18,0,0,1,313,165h57.81a1.69,1.69,0,0,1,1.7,1.91l-4.38,40.77A2.18,2.18,0,0,1,366.06,209.61Z" transform="translate(0 12.96)" fill="none" stroke="#263238" stroke-linecap="round" stroke-linejoin="round"/><polyline points="345.51 223.66 346.5 232.84 348.68 232.84 347.69 223.66" fill="none" stroke="#263238" stroke-linecap="round" stroke-linejoin="round"/><polyline points="331.33 223.66 332.32 232.84 346.5 232.84 345.51 223.66" fill="none" stroke="#263238" stroke-linecap="round" stroke-linejoin="round"/><path d="M363.64,206.66H311.3a1.46,1.46,0,0,1-1.48-1.66l3.8-35.37a1.89,1.89,0,0,1,1.84-1.66H367.8a1.46,1.46,0,0,1,1.48,1.66L365.48,205A1.89,1.89,0,0,1,363.64,206.66Z" transform="translate(0 12.96)" fill="none" stroke="#263238" stroke-linecap="round" stroke-linejoin="round"/><rect x="322.12" y="232.84" width="28.75" height="4.59" fill="none" stroke="#263238" stroke-linecap="round" stroke-linejoin="round"/><rect x="350.87" y="232.84" width="8.41" height="4.59" fill="none" stroke="#263238" stroke-linecap="round" stroke-linejoin="round"/><rect x="292.42" y="189.59" width="94.15" height="21.21" fill="#fff" stroke="#263238" stroke-linecap="round" stroke-linejoin="round"/><path d="M303.8,189.45l-1.52-1.16.25,1.86a.85.85,0,0,1-.84,1h0a.85.85,0,0,1-.84-1l.25-1.86-1.52,1.16a.85.85,0,0,1-1.24-.25l0,0a.84.84,0,0,1,.4-1.2l1.75-.73-1.75-.73a.85.85,0,0,1-.4-1.21l0,0a.84.84,0,0,1,1.24-.25l1.52,1.16-.25-1.86a.85.85,0,0,1,.84-1h0a.85.85,0,0,1,.84,1l-.25,1.86L303.8,185a.84.84,0,0,1,1.24.25l0,0a.85.85,0,0,1-.4,1.21l-1.75.73,1.75.73a.84.84,0,0,1,.4,1.2l0,0A.85.85,0,0,1,303.8,189.45Z" transform="translate(0 12.96)" fill="#263238"/><path d="M317.37,189.45l-1.52-1.16.25,1.86a.85.85,0,0,1-.84,1h0a.84.84,0,0,1-.83-1l.25-1.86-1.52,1.16a.86.86,0,0,1-1.25-.25l0,0a.85.85,0,0,1,.41-1.2l1.74-.73-1.74-.73a.86.86,0,0,1-.41-1.21l0,0a.85.85,0,0,1,1.25-.25l1.52,1.16-.25-1.86a.84.84,0,0,1,.83-1h0a.85.85,0,0,1,.84,1l-.25,1.86,1.52-1.16a.84.84,0,0,1,1.24.25l0,0a.85.85,0,0,1-.4,1.21l-1.74.73,1.74.73a.84.84,0,0,1,.4,1.2l0,0A.85.85,0,0,1,317.37,189.45Z" transform="translate(0 12.96)" fill="#263238"/><path d="M330.94,189.45l-1.52-1.16.25,1.86a.84.84,0,0,1-.83,1h0a.85.85,0,0,1-.84-1l.25-1.86-1.52,1.16a.85.85,0,0,1-1.24-.25l0,0a.84.84,0,0,1,.4-1.2l1.74-.73-1.74-.73a.85.85,0,0,1-.4-1.21l0,0a.84.84,0,0,1,1.24-.25l1.52,1.16-.25-1.86a.85.85,0,0,1,.84-1h0a.84.84,0,0,1,.83,1l-.25,1.86,1.52-1.16a.84.84,0,0,1,1.24.25l0,0a.86.86,0,0,1-.41,1.21l-1.74.73,1.74.73a.84.84,0,0,1,.4,1.2l0,0A.85.85,0,0,1,330.94,189.45Z" transform="translate(0 12.96)" fill="#263238"/><path d="M344.52,189.45,343,188.29l.24,1.86a.84.84,0,0,1-.83,1h0a.85.85,0,0,1-.84-1l.25-1.86-1.52,1.16a.85.85,0,0,1-1.24-.25l0,0a.84.84,0,0,1,.4-1.2l1.75-.73-1.75-.73a.85.85,0,0,1-.4-1.21l0,0a.84.84,0,0,1,1.24-.25l1.52,1.16-.25-1.86a.85.85,0,0,1,.84-1h0a.84.84,0,0,1,.83,1l-.24,1.86,1.52-1.16a.84.84,0,0,1,1.24.25l0,0a.86.86,0,0,1-.4,1.21l-1.75.73,1.75.73a.85.85,0,0,1,.4,1.2l0,0A.85.85,0,0,1,344.52,189.45Z" transform="translate(0 12.96)" fill="#263238"/><path d="M358.09,189.45l-1.52-1.16.25,1.86a.85.85,0,0,1-.84,1h0a.85.85,0,0,1-.84-1l.25-1.86-1.52,1.16a.85.85,0,0,1-1.24-.25l0,0a.84.84,0,0,1,.4-1.2l1.75-.73L353,186.5a.85.85,0,0,1-.4-1.21l0,0a.84.84,0,0,1,1.24-.25l1.52,1.16-.25-1.86a.85.85,0,0,1,.84-1h0a.85.85,0,0,1,.84,1l-.25,1.86,1.52-1.16a.84.84,0,0,1,1.24.25l0,0a.85.85,0,0,1-.4,1.21l-1.75.73L359,188a.84.84,0,0,1,.4,1.2l0,0A.85.85,0,0,1,358.09,189.45Z" transform="translate(0 12.96)" fill="#263238"/><path d="M380.78,187.23s-2.77,3.45-6.18,3.45-6.17-3.45-6.17-3.45,2.76-3.46,6.17-3.46S380.78,187.23,380.78,187.23Z" transform="translate(0 12.96)" fill="#fff" stroke="#263238" stroke-linecap="round" stroke-linejoin="round"/><path d="M376.73,187.23a2.13,2.13,0,1,1-2.13-2.12A2.12,2.12,0,0,1,376.73,187.23Z" transform="translate(0 12.96)" fill="#999" stroke="#263238" stroke-linecap="round" stroke-linejoin="round"/></g><g id="Plant"><path d="M357,279.63s-11.45,23.65-21.51,11.65,6.94-16.5,6.94-16.5-20.48,2.42-20.48-8.68,14.58-4.16,14.58-4.16-18.94-14.78-9.72-21c6.42-4.33,21.86,11.34,21.86,11.34s-5.9-15.32,1.05-15.67,11.45,21.87,11.45,21.87,3.81-16.37,10.75-11.66-5.45,22.89-5.45,22.89,8.92-8.81,11.35-2.56-11.35,10.41-11.35,10.41-.1,22.9-7.73,20.13S357,279.63,357,279.63Z" transform="translate(0 12.96)" fill="#92e3a9"/><path d="M381.36,331s0-52.74-31.38-68.71" transform="translate(0 12.96)" fill="none" stroke="#263238" stroke-linecap="round" stroke-linejoin="round"/><path d="M361.2,270.7s-8.76,1.56-18.65,12.32" transform="translate(0 12.96)" fill="none" stroke="#263238" stroke-linecap="round" stroke-linejoin="round"/><path d="M355.07,265.38s-9.66,2.94-19,1.88" transform="translate(0 12.96)" fill="none" stroke="#263238" stroke-linecap="round" stroke-linejoin="round"/><path d="M357.79,267.49a28.68,28.68,0,0,0,10.27-12.23" transform="translate(0 12.96)" fill="none" stroke="#263238" stroke-linecap="round" stroke-linejoin="round"/><path d="M416.48,295.18s9.66,19.95,18.15,9.82-5.86-13.92-5.86-13.92,17.28,2.05,17.28-7.32-12.3-3.52-12.3-3.52,16-12.46,8.2-17.72c-5.42-3.66-18.45,9.56-18.45,9.56s5-12.92-.87-13.21S413,277.31,413,277.31s-3.22-13.81-9.07-9.83,4.6,19.32,4.6,19.32-7.53-7.44-9.58-2.17,9.58,8.79,9.58,8.79.08,19.32,6.52,17S416.48,295.18,416.48,295.18Z" transform="translate(0 12.96)" fill="#92e3a9"/><g clip-path="url(#clip-path)"><path d="M416.48,295.18s9.66,19.95,18.15,9.82-5.86-13.92-5.86-13.92,17.28,2.05,17.28-7.32-12.3-3.52-12.3-3.52,16-12.46,8.2-17.72c-5.42-3.66-18.45,9.56-18.45,9.56s5-12.92-.87-13.21S413,277.31,413,277.31s-3.22-13.81-9.07-9.83,4.6,19.32,4.6,19.32-7.53-7.44-9.58-2.17,9.58,8.79,9.58,8.79.08,19.32,6.52,17S416.48,295.18,416.48,295.18Z" transform="translate(0 12.96)" opacity="0.1"/></g><path d="M415.31,284.19h0c-13.65,9.85-15.6,44-15.6,44" transform="translate(0 12.96)" fill="none" stroke="#263238" stroke-linecap="round" stroke-linejoin="round"/><path d="M411.28,288.15a39.29,39.29,0,0,1,14.51,9.76" transform="translate(0 12.96)" fill="none" stroke="#263238" stroke-linecap="round" stroke-linejoin="round"/><path d="M419.72,267.49c0,7.46-4.42,16.7-4.42,16.7l3.24,1" transform="translate(0 12.96)" fill="none" stroke="#263238" stroke-linecap="round" stroke-linejoin="round"/><path d="M421.21,286s8.23,1.84,14.48,0" transform="translate(0 12.96)" fill="none" stroke="#263238" stroke-linecap="round" stroke-linejoin="round"/><path d="M387.12,243.73s-23.11,1-21.66-11.38C366.67,222,383,228.92,383,228.92s-13.42-15.65-4.2-21.83S393.53,219,393.53,219s5.88-26,16.19-21.85c7.18,2.92-4.51,24.47-4.51,24.47s13.59-9.27,17.75-3.7S407,235.4,407,235.4s15.72-6,15.67,2.44-22.05,8.22-22.05,8.22,12.29,2.51,8.45,8-15-3.63-15-3.63-15.05,10.89-17,3S387.12,243.73,387.12,243.73Z" transform="translate(0 12.96)" fill="#92e3a9"/><g clip-path="url(#clip-path-2)"><path d="M387.12,243.73s-23.11,1-21.66-11.38C366.67,222,383,228.92,383,228.92s-13.42-15.65-4.2-21.83S393.53,219,393.53,219s5.88-26,16.19-21.85c7.18,2.92-4.51,24.47-4.51,24.47s13.59-9.27,17.75-3.7S407,235.4,407,235.4s15.72-6,15.67,2.44-22.05,8.22-22.05,8.22,12.29,2.51,8.45,8-15-3.63-15-3.63-15.05,10.89-17,3S387.12,243.73,387.12,243.73Z" transform="translate(0 12.96)" fill="#fff" opacity="0.2"/></g><path d="M390.31,331s-3.69-65.28,9.39-109" transform="translate(0 12.96)" fill="none" stroke="#263238" stroke-linecap="round" stroke-linejoin="round"/><path d="M374.26,233.91s9.74-.82,21.25,5.5" transform="translate(0 12.96)" fill="none" stroke="#263238" stroke-linecap="round" stroke-linejoin="round"/><path d="M382.36,213.35s9.75,9.54,13.71,23.25" transform="translate(0 12.96)" fill="none" stroke="#263238" stroke-linecap="round" stroke-linejoin="round"/><path d="M396.94,232.56s6.33-7,14.34-8.8" transform="translate(0 12.96)" fill="none" stroke="#263238" stroke-linecap="round" stroke-linejoin="round"/><path d="M415.1,324.53H365.33l4,45.12a1.91,1.91,0,0,0,1.9,1.75h0l1,11.15a1.92,1.92,0,0,0,1.91,1.74h32.15a1.91,1.91,0,0,0,1.9-1.74l1-11.15h0a1.92,1.92,0,0,0,1.9-1.75Z" transform="translate(0 12.96)" fill="#fff" stroke="#263238" stroke-linecap="round" stroke-linejoin="round"/><path d="M415.42,328.22H365a3.57,3.57,0,0,1-3.56-3.56h0A3.56,3.56,0,0,1,365,321.1h50.41a3.55,3.55,0,0,1,3.55,3.56h0A3.56,3.56,0,0,1,415.42,328.22Z" transform="translate(0 12.96)" fill="#263238" stroke="#263238" stroke-linecap="round" stroke-linejoin="round"/><line x1="400.01" y1="384.5" x2="403.31" y2="384.5" fill="none" stroke="#263238" stroke-linecap="round" stroke-linejoin="round"/><line x1="377.11" y1="384.5" x2="396.7" y2="384.5" fill="none" stroke="#263238" stroke-linecap="round" stroke-linejoin="round"/></g><g id="Device"><path d="M279.83.5H266.2V261.18h13.63A8.19,8.19,0,0,0,288,253V8.69A8.18,8.18,0,0,0,279.83.5Z" transform="translate(0 12.96)" fill="#999" stroke="#263238" stroke-linecap="round" stroke-linejoin="round"/><rect x="150.04" y="13.46" width="133.61" height="260.68" rx="7.5" fill="#263238" stroke="#263238" stroke-linecap="round" stroke-linejoin="round"/><path d="M240,12h0a6.58,6.58,0,0,1-6.53,5.75H199.11A6.58,6.58,0,0,1,192.58,12h0a6.58,6.58,0,0,0-6.53-5.75H161.89a6.58,6.58,0,0,0-6.58,6.58V248.88a6.59,6.59,0,0,0,6.58,6.58H271.8a6.58,6.58,0,0,0,6.58-6.58V12.8a6.57,6.57,0,0,0-6.58-6.58H246.51A6.58,6.58,0,0,0,240,12Z" transform="translate(0 12.96)" fill="#92e3a9"/><g clip-path="url(#clip-path-3)"><polygon points="191.56 285 151.4 285 248.21 0 288.37 0 191.56 285" fill="#fff" opacity="0.4"/><polygon points="219.64 285 208.96 285 305.78 0 316.46 0 219.64 285" fill="#fff" opacity="0.4"/></g><path d="M240,12h0a6.58,6.58,0,0,1-6.53,5.75H199.11A6.58,6.58,0,0,1,192.58,12h0a6.58,6.58,0,0,0-6.53-5.75H161.89a6.58,6.58,0,0,0-6.58,6.58V248.88a6.59,6.59,0,0,0,6.58,6.58H271.8a6.58,6.58,0,0,0,6.58-6.58V12.8a6.57,6.57,0,0,0-6.58-6.58H246.51A6.58,6.58,0,0,0,240,12Z" transform="translate(0 12.96)" fill="none" stroke="#263238" stroke-linecap="round" stroke-linejoin="round"/><path d="M205,9.6a3,3,0,1,1-3-3A3,3,0,0,1,205,9.6Z" transform="translate(0 12.96)" fill="#92e3a9" stroke="#263238" stroke-linecap="round" stroke-linejoin="round"/><path d="M228.75,6.69H213.57a2.91,2.91,0,0,0,0,5.81h15.18a2.91,2.91,0,1,0,0-5.81Z" transform="translate(0 12.96)" fill="#999" stroke="#263238" stroke-linecap="round" stroke-linejoin="round"/><path d="M230.62,242.63H201.39a3,3,0,0,0,0,6.05h29.23a3,3,0,0,0,0-6.05Z" transform="translate(0 12.96)" fill="#999" stroke="#263238" stroke-linecap="round" stroke-linejoin="round"/><path d="M289.5,66.84V47.34a1.63,1.63,0,0,0-3.26,0v19.5a1.63,1.63,0,0,0,3.26,0Z" transform="translate(0 12.96)" fill="#263238"/><path d="M289.5,81.32V74.83a1.63,1.63,0,1,0-3.26,0v6.49a1.63,1.63,0,0,0,3.26,0Z" transform="translate(0 12.96)" fill="#263238"/><rect x="145.42" y="108.66" width="147.11" height="33.14" fill="#fff" stroke="#263238" stroke-linecap="round" stroke-linejoin="round"/><path d="M163.2,115.73l-2.38-1.81.39,2.91a1.32,1.32,0,0,1-1.3,1.5h0a1.32,1.32,0,0,1-1.31-1.5l.39-2.91-2.38,1.81a1.32,1.32,0,0,1-1.94-.38l0-.06a1.32,1.32,0,0,1,.63-1.88l2.73-1.14-2.73-1.15a1.32,1.32,0,0,1-.63-1.88l0-.06a1.32,1.32,0,0,1,1.94-.38l2.38,1.81-.39-2.91a1.31,1.31,0,0,1,1.31-1.49h0a1.31,1.31,0,0,1,1.3,1.49l-.39,2.91,2.38-1.81a1.32,1.32,0,0,1,1.94.38l0,.06a1.32,1.32,0,0,1-.63,1.88l-2.72,1.15,2.72,1.14a1.32,1.32,0,0,1,.63,1.88l0,.06A1.32,1.32,0,0,1,163.2,115.73Z" transform="translate(0 12.96)" fill="#263238"/><path d="M184.41,115.73,182,113.92l.39,2.91a1.33,1.33,0,0,1-1.31,1.5h0a1.32,1.32,0,0,1-1.3-1.5l.38-2.91-2.37,1.81a1.32,1.32,0,0,1-1.94-.38l0-.06a1.32,1.32,0,0,1,.63-1.88l2.72-1.14-2.72-1.15a1.32,1.32,0,0,1-.63-1.88l0-.06a1.32,1.32,0,0,1,1.94-.38l2.37,1.81-.38-2.91a1.31,1.31,0,0,1,1.3-1.49h0a1.32,1.32,0,0,1,1.31,1.49l-.39,2.91,2.38-1.81a1.31,1.31,0,0,1,1.93.38l0,.06a1.32,1.32,0,0,1-.63,1.88L183,112.27l2.73,1.14a1.32,1.32,0,0,1,.63,1.88l0,.06A1.31,1.31,0,0,1,184.41,115.73Z" transform="translate(0 12.96)" fill="#263238"/><path d="M205.61,115.73l-2.37-1.81.39,2.91a1.33,1.33,0,0,1-1.31,1.5h0a1.33,1.33,0,0,1-1.31-1.5l.39-2.91L199,115.73a1.32,1.32,0,0,1-1.94-.38l0-.06a1.32,1.32,0,0,1,.63-1.88l2.73-1.14-2.73-1.15a1.32,1.32,0,0,1-.63-1.88l0-.06a1.32,1.32,0,0,1,1.94-.38l2.37,1.81L201,107.7a1.32,1.32,0,0,1,1.31-1.49h0a1.32,1.32,0,0,1,1.31,1.49l-.39,2.91,2.37-1.81a1.32,1.32,0,0,1,1.94.38l0,.06a1.31,1.31,0,0,1-.62,1.88l-2.73,1.15,2.73,1.14a1.31,1.31,0,0,1,.62,1.88l0,.06A1.32,1.32,0,0,1,205.61,115.73Z" transform="translate(0 12.96)" fill="#263238"/><path d="M226.82,115.73l-2.38-1.81.39,2.91a1.32,1.32,0,0,1-1.3,1.5h0a1.32,1.32,0,0,1-1.31-1.5l.39-2.91-2.38,1.81a1.32,1.32,0,0,1-1.94-.38l0-.06a1.32,1.32,0,0,1,.63-1.88l2.73-1.14-2.73-1.15a1.32,1.32,0,0,1-.63-1.88l0-.06a1.32,1.32,0,0,1,1.94-.38l2.38,1.81-.39-2.91a1.31,1.31,0,0,1,1.31-1.49h0a1.31,1.31,0,0,1,1.3,1.49l-.39,2.91,2.38-1.81a1.32,1.32,0,0,1,1.94.38l0,.06a1.32,1.32,0,0,1-.63,1.88l-2.72,1.15,2.72,1.14a1.32,1.32,0,0,1,.63,1.88l0,.06A1.32,1.32,0,0,1,226.82,115.73Z" transform="translate(0 12.96)" fill="#263238"/><path d="M248,115.73l-2.38-1.81.39,2.91a1.32,1.32,0,0,1-1.31,1.5h0a1.32,1.32,0,0,1-1.3-1.5l.39-2.91-2.38,1.81a1.32,1.32,0,0,1-1.94-.38l0-.06a1.32,1.32,0,0,1,.63-1.88l2.72-1.14-2.72-1.15a1.32,1.32,0,0,1-.63-1.88l0-.06a1.32,1.32,0,0,1,1.94-.38l2.38,1.81-.39-2.91a1.31,1.31,0,0,1,1.3-1.49h0A1.31,1.31,0,0,1,246,107.7l-.39,2.91L248,108.8a1.31,1.31,0,0,1,1.93.38l0,.06a1.32,1.32,0,0,1-.63,1.88l-2.73,1.15,2.73,1.14a1.32,1.32,0,0,1,.63,1.88l0,.06A1.31,1.31,0,0,1,248,115.73Z" transform="translate(0 12.96)" fill="#263238"/><path d="M283.48,112.27s-4.32,5.39-9.65,5.39-9.64-5.39-9.64-5.39,4.31-5.4,9.64-5.4S283.48,112.27,283.48,112.27Z" transform="translate(0 12.96)" fill="#fff" stroke="#263238" stroke-linecap="round" stroke-linejoin="round"/><path d="M277.15,112.27a3.32,3.32,0,1,1-3.32-3.32A3.32,3.32,0,0,1,277.15,112.27Z" transform="translate(0 12.96)" fill="#999" stroke="#263238" stroke-linecap="round" stroke-linejoin="round"/><rect x="161.32" y="158.35" width="16.71" height="19.24" rx="3.97" fill="#92e3a9" stroke="#263238" stroke-linecap="round" stroke-linejoin="round"/><rect x="179.95" y="158.35" width="16.71" height="19.24" rx="3.97" fill="#92e3a9" stroke="#263238" stroke-linecap="round" stroke-linejoin="round"/><rect x="198.58" y="158.35" width="16.71" height="19.24" rx="3.97" fill="#92e3a9" stroke="#263238" stroke-linecap="round" stroke-linejoin="round"/><rect x="217.21" y="158.35" width="16.71" height="19.24" rx="3.97" fill="#92e3a9" stroke="#263238" stroke-linecap="round" stroke-linejoin="round"/><rect x="235.85" y="158.35" width="16.71" height="19.24" rx="3.97" fill="#92e3a9" stroke="#263238" stroke-linecap="round" stroke-linejoin="round"/><rect x="254.48" y="158.35" width="16.71" height="19.24" rx="3.97" fill="#92e3a9" stroke="#263238" stroke-linecap="round" stroke-linejoin="round"/><rect x="170.63" y="180.65" width="16.71" height="19.24" rx="3.97" fill="#92e3a9" stroke="#263238" stroke-linecap="round" stroke-linejoin="round"/><rect x="189.26" y="180.65" width="16.71" height="19.24" rx="3.97" fill="#92e3a9" stroke="#263238" stroke-linecap="round" stroke-linejoin="round"/><rect x="207.9" y="180.65" width="16.71" height="19.24" rx="3.97" fill="#92e3a9" stroke="#263238" stroke-linecap="round" stroke-linejoin="round"/><rect x="226.53" y="180.65" width="16.71" height="19.24" rx="3.97" fill="#92e3a9" stroke="#263238" stroke-linecap="round" stroke-linejoin="round"/><rect x="245.16" y="180.65" width="16.71" height="19.24" rx="3.97" fill="#92e3a9" stroke="#263238" stroke-linecap="round" stroke-linejoin="round"/><rect x="161.32" y="202.95" width="16.71" height="19.24" rx="3.97" fill="#92e3a9" stroke="#263238" stroke-linecap="round" stroke-linejoin="round"/><rect x="179.95" y="202.95" width="16.71" height="19.24" rx="3.97" fill="#92e3a9" stroke="#263238" stroke-linecap="round" stroke-linejoin="round"/><rect x="198.58" y="202.95" width="16.71" height="19.24" rx="3.97" fill="#92e3a9" stroke="#263238" stroke-linecap="round" stroke-linejoin="round"/><rect x="217.21" y="202.95" width="16.71" height="19.24" rx="3.97" fill="#92e3a9" stroke="#263238" stroke-linecap="round" stroke-linejoin="round"/><rect x="235.85" y="202.95" width="16.71" height="19.24" rx="3.97" fill="#92e3a9" stroke="#263238" stroke-linecap="round" stroke-linejoin="round"/><rect x="254.48" y="202.95" width="16.71" height="19.24" rx="3.97" fill="#92e3a9" stroke="#263238" stroke-linecap="round" stroke-linejoin="round"/><rect x="170.63" y="225.25" width="16.71" height="19.24" rx="3.97" fill="#92e3a9" stroke="#263238" stroke-linecap="round" stroke-linejoin="round"/><rect x="189.26" y="225.25" width="16.71" height="19.24" rx="3.97" fill="#92e3a9" stroke="#263238" stroke-linecap="round" stroke-linejoin="round"/><rect x="207.9" y="225.25" width="16.71" height="19.24" rx="3.97" fill="#92e3a9" stroke="#263238" stroke-linecap="round" stroke-linejoin="round"/><rect x="226.53" y="225.25" width="16.71" height="19.24" rx="3.97" fill="#92e3a9" stroke="#263238" stroke-linecap="round" stroke-linejoin="round"/><rect x="245.16" y="225.25" width="16.71" height="19.24" rx="3.97" fill="#92e3a9" stroke="#263238" stroke-linecap="round" stroke-linejoin="round"/><circle cx="216" cy="56" r="27.86" transform="translate(65.24 233.47) rotate(-62.03)" fill="#fff" stroke="#263238" stroke-linecap="round" stroke-linejoin="round"/><path d="M216,83.85a27.66,27.66,0,0,0,16.85-5.68,59.53,59.53,0,0,0-20.4-3.72,43.5,43.5,0,0,0-14.62,2.65A27.77,27.77,0,0,0,216,83.85Z" transform="translate(0 12.96)" fill="#92e3a9" stroke="#263238" stroke-linecap="round" stroke-linejoin="round"/><path d="M208.5,68.42s-.24-9.08-2.79-15.72-4-16.45,5.73-17.81,13.58.25,19.15-.19c10.7-.84-1.09,11.46-1.09,11.46l-14.33,5.59S210.2,68.86,208.5,68.42Z" transform="translate(0 12.96)" fill="#263238" stroke="#263238" stroke-linecap="round" stroke-linejoin="round"/><path d="M207.85,71.06l2.53-10.33,7,2.12,2.11,8.38a5.64,5.64,0,0,0,3,3.72,17.76,17.76,0,0,1,3,1.77s-8.34,10.69-24.35,0a16.36,16.36,0,0,1,3.42-1.91A5.52,5.52,0,0,0,207.85,71.06Z" transform="translate(0 12.96)" fill="#fff"/><g clip-path="url(#clip-path-4)"><path d="M229.72,46.48l.92,6.13a4.37,4.37,0,0,1-.16,1.93L230,56.21l.31,4a4.44,4.44,0,0,1,0,.63c-.14,2-1.13,11.82-7,12.27-5.24.4-10.46-5-12.31-7.56a6.21,6.21,0,0,1-1-2.12l-.8-3.11a3.53,3.53,0,0,1-3.34-2.46c-.79-2.51-2.1-4.13.44-5.38s3.44,2.28,3.44,2.28.66-4.13,1.36-5.31,2.86-2.3,3.52-3.31a14.94,14.94,0,0,0,.9-2.49s7.73,1.49,13.6.3Z" transform="translate(0 12.96)" fill="#263238" stroke="#263238" stroke-linecap="round" stroke-linejoin="round"/></g><path d="M207.85,71.06l2.53-10.33,7,2.12,2.11,8.38a5.64,5.64,0,0,0,3,3.72,17.76,17.76,0,0,1,3,1.77s-8.34,10.69-24.35,0a16.36,16.36,0,0,1,3.42-1.91A5.52,5.52,0,0,0,207.85,71.06Z" transform="translate(0 12.96)" fill="none" stroke="#263238" stroke-linecap="round" stroke-linejoin="round"/><path d="M229.72,45.39l.92,6.13a4.37,4.37,0,0,1-.16,1.93L230,55.12l.31,4a4.39,4.39,0,0,1,0,.63c-.14,2-1.13,11.82-7,12.27-5.24.4-10.46-5-12.31-7.56a6.21,6.21,0,0,1-1-2.12l-.8-3.11a3.53,3.53,0,0,1-3.34-2.46c-.79-2.51-2.1-4.13.44-5.38s3.44,2.28,3.44,2.28.66-4.13,1.36-5.31,2.86-2.3,3.52-3.31a14.94,14.94,0,0,0,.9-2.49s7.73,1.49,13.6.3Z" transform="translate(0 12.96)" fill="#fff" stroke="#263238" stroke-linecap="round" stroke-linejoin="round"/><path d="M225.57,55.62l1.92,4.64a1,1,0,0,1-.89,1.42l-2.39.16" transform="translate(0 12.96)" fill="none" stroke="#263238" stroke-linecap="round" stroke-linejoin="round" stroke-width="0.75"/><path d="M219.62,63.57a3,3,0,0,0,4.47,1.11" transform="translate(0 12.96)" fill="none" stroke="#263238" stroke-linecap="round" stroke-linejoin="round" stroke-width="0.75"/><path d="M219.53,38.07C209.17,36.89,207.26,41,207.26,41" transform="translate(0 12.96)" fill="none" stroke="#7f7f7f" stroke-linecap="round" stroke-linejoin="round" stroke-width="0.75"/><path d="M230.94,36.93a38.5,38.5,0,0,1-9.09,1.18" transform="translate(0 12.96)" fill="none" stroke="#7f7f7f" stroke-linecap="round" stroke-linejoin="round" stroke-width="0.75"/><path d="M221.57,41.05c3,0,8.91-.55,11.29-3.27" transform="translate(0 12.96)" fill="none" stroke="#7f7f7f" stroke-linecap="round" stroke-linejoin="round" stroke-width="0.75"/><path d="M217.21,40.55a18.83,18.83,0,0,0,2.32.38" transform="translate(0 12.96)" fill="none" stroke="#7f7f7f" stroke-linecap="round" stroke-linejoin="round" stroke-width="0.75"/><path d="M221.41,55c0,.8-.32,1.44-.72,1.44S220,55.75,220,55s.33-1.44.72-1.44S221.41,54.16,221.41,55Z" transform="translate(0 12.96)" fill="#263238"/><path d="M228.19,54.76c0,.69-.28,1.25-.62,1.25s-.63-.56-.63-1.25.28-1.25.63-1.25S228.19,54.07,228.19,54.76Z" transform="translate(0 12.96)" fill="#263238"/><path d="M218.34,52.83s.86-2.57,2.35-2.5a2.7,2.7,0,0,1,2.17,1.5" transform="translate(0 12.96)" fill="none" stroke="#263238" stroke-linecap="round" stroke-linejoin="round" stroke-width="0.75"/><path d="M228.66,51.76c-.28-.7-.71-1.47-1.28-1.43-1,.06-1.49,1.5-1.49,1.5" transform="translate(0 12.96)" fill="none" stroke="#263238" stroke-linecap="round" stroke-linejoin="round" stroke-width="0.75"/></g><g id="Character"><path d="M73.66,173.19c2-4.86-2.89-19.56-5.08-25.59a2.27,2.27,0,0,0-3.65-.91c-2,1.77-4.39,5.21-4.79,11.59,0,0-15.25,26.87-15.25,39.13,0,11.49,22.71,35.42,22.71,35.42A10.61,10.61,0,0,0,73.66,228s-8.49-21-15.08-30C58.58,198,71.41,178.57,73.66,173.19Z" transform="translate(0 12.96)" fill="#263238"/><g clip-path="url(#clip-path-5)"><path d="M71.11,181.05s-7.27-15.49-10-14.1-9.81,27.51-7.1,31.67,17.49,33.53,21.19,32.94S71.11,181.05,71.11,181.05Z" transform="translate(0 12.96)" opacity="0.2"/></g><path d="M73.66,173.19c2-4.86-2.89-19.56-5.08-25.59a2.27,2.27,0,0,0-3.65-.91c-2,1.77-4.39,5.21-4.79,11.59,0,0-15.25,26.87-15.25,39.13,0,11.49,22.71,35.42,22.71,35.42A10.61,10.61,0,0,0,73.66,228s-8.49-21-15.08-30C58.58,198,71.41,178.57,73.66,173.19Z" transform="translate(0 12.96)" fill="none" stroke="#263238" stroke-linecap="round" stroke-linejoin="round"/><path d="M71.73,226.06l3.43,5.5S85.84,234.9,87,238.43s-4.36,8.44-7.61,7.46-8.55-10.79-8.55-10.79l-4.32-5Z" transform="translate(0 12.96)" fill="#fff" stroke="#263238" stroke-linecap="round" stroke-linejoin="round"/><path d="M65,231.44l2.31,2.66a13.19,13.19,0,0,0,7.76-5.92l-1.4-3.33S71.7,229.47,65,231.44Z" transform="translate(0 12.96)" fill="#92e3a9" stroke="#263238" stroke-linecap="round" stroke-linejoin="round"/><path d="M78.7,378.62l-3,12.45a2.84,2.84,0,0,0,2.76,3.5H96a2.85,2.85,0,0,0,2.81-3.33,6.78,6.78,0,0,0-2.92-4.65c-4-2.6-5.9-10.74-5.9-10.74Z" transform="translate(0 12.96)" fill="#263238" stroke="#263238" stroke-linecap="round" stroke-linejoin="round"/><path d="M121.86,380.7S119,384.77,118.61,392a2.43,2.43,0,0,0,2.43,2.54h31.07a2.92,2.92,0,0,0,1.84-5.2,9,9,0,0,0-4.53-1.74c-7.62-1-14.37-4.5-15.59-9Z" transform="translate(0 12.96)" fill="#263238" stroke="#263238" stroke-linecap="round" stroke-linejoin="round"/><path d="M73.66,228s-3.52,14.56-2.13,46l.9,35.6s-5.06,25,4.65,70.26c0,0,3,6.7,15.09-1.68l1.38-69,12.65-76.27Z" transform="translate(0 12.96)" fill="#999"/><g clip-path="url(#clip-path-6)"><path d="M98.82,260.1s-5.16,20.57-7.24,32.59-14.45,11.1-15.94,19,13-1.39,11.59,27-6.48,43.9,1.48,43.68,8.19-22.65,8.19-22.65l4.85-68.18v-9.48l1.16-18Z" transform="translate(0 12.96)" opacity="0.2"/></g><path d="M73.66,228s-3.52,14.56-2.13,46l.9,35.6s-5.06,25,4.65,70.26c0,0,3,6.7,15.09-1.68l1.38-69,12.65-76.27Z" transform="translate(0 12.96)" fill="none" stroke="#263238" stroke-linecap="round" stroke-linejoin="round"/><path d="M75.64,317.29a23.57,23.57,0,0,0-1.49,2.21" transform="translate(0 12.96)" fill="none" stroke="#263238" stroke-linecap="round" stroke-linejoin="round"/><path d="M76.27,309.45s11.6-2.77,12.39,0c.68,2.41-5.59-.42-11.78,6.34" transform="translate(0 12.96)" fill="none" stroke="#263238" stroke-linecap="round" stroke-linejoin="round"/><path d="M96.38,265.1c9,14.53,21.67,43.12,21.67,43.12s-1.91,3.31,0,8.86c0,0-5,19.31,2.25,65.48,0,0,6.24,4,15.26-3,0,0,4.5-69.4,2.77-78.76s-18-71.18-18-71.18H84.55" transform="translate(0 12.96)" fill="#999"/><g clip-path="url(#clip-path-7)"><path d="M94.35,266.11s5.45,2.77,15.9,0,1.79,9,5.25,21.84,13.18,18.73,11.62,24.27-6.18,6.94-7.17,21.85,12.09,42.45,6.94,48.09-17.63-7.7-17.63-7.7L98.82,303.78Z" transform="translate(0 12.96)" opacity="0.2"/></g><path d="M96.38,265.1c9,14.53,21.67,43.12,21.67,43.12s-1.91,3.31,0,8.86c0,0-5,19.31,2.25,65.48,0,0,6.24,4,15.26-3,0,0,4.5-69.4,2.77-78.76s-18-71.18-18-71.18H84.55" transform="translate(0 12.96)" fill="none" stroke="#263238" stroke-linecap="round" stroke-linejoin="round"/><path d="M124.67,310.67c4.11-.62,9.36-1.05,9.15.86-.34,3.12-7.67,0-12.13,5.2" transform="translate(0 12.96)" fill="none" stroke="#263238" stroke-linecap="round" stroke-linejoin="round"/><path d="M120,311.53s.72-.16,1.83-.37" transform="translate(0 12.96)" fill="none" stroke="#263238" stroke-linecap="round" stroke-linejoin="round"/><path d="M148.55,131.49l.65-6.6s-1.3-6.87-.65-9.2,6.35-17.1,8.16-16.45-2.72,8.68-2.59,11c0,0,2.41.13,3,1.68,0,0,2.29.39,2.42,2.46a3.68,3.68,0,0,1,1.69,3.37c-.26,2.2-4.67,8.16-4.67,8.16l.26,8.55Z" transform="translate(0 12.96)" fill="#fff" stroke="#263238" stroke-linecap="round" stroke-linejoin="round"/><path d="M110.23,120.34s-2.55-5-2.92-6.89c-.26-1.3.27-4,0-5.31-.62-3-4.89-11.44-4.89-11.44a2.31,2.31,0,0,0-.76-.9l-2.49,3.08H92.38L82,112.56l5.11,12.27-1.5,1.78c.91.9,1.5,1.42,1.5,1.42l-1.5,8.91,14.6,1.48.38-5.66h4.44a2.26,2.26,0,0,0,2.26-2.26v-7.73l2-.58A1.37,1.37,0,0,0,110.23,120.34Z" transform="translate(0 12.96)" fill="#fff" stroke="#263238" stroke-linecap="round" stroke-linejoin="round"/><path d="M74.92,115.89C80.8,124.55,87.13,128,87.13,128l2.48-6.19s-5-.53-4.25-5.39c1.17-7.17,7-.72,7-.72l1.26-5.54s3.11-3.34,2.89-4.51a20.42,20.42,0,0,0-.66-2.51s11.25-10.71,10.06-16.68c0,0-9.37,1.9-20.55,4C71.75,93,68.28,106.13,74.92,115.89Z" transform="translate(0 12.96)" fill="#263238" stroke="#263238" stroke-linecap="round" stroke-linejoin="round"/><path d="M105.05,132.76s-7.83-1.33-10.82-5-.61.26.79,2.51C98,135.09,100.61,132.76,105.05,132.76Z" transform="translate(0 12.96)" fill="#263238"/><path d="M100.23,121.51a5,5,0,0,0,4.38,1.65" transform="translate(0 12.96)" fill="none" stroke="#263238" stroke-linecap="round" stroke-linejoin="round" stroke-width="0.75"/><path d="M105.93,111.94c0,.7-.26,1.26-.59,1.26s-.58-.56-.58-1.26.26-1.26.58-1.26S105.93,111.24,105.93,111.94Z" transform="translate(0 12.96)" fill="#263238"/><path d="M105.82,108.26a3.5,3.5,0,0,0-4,2.11" transform="translate(0 12.96)" fill="none" stroke="#263238" stroke-linecap="round" stroke-linejoin="round" stroke-width="0.75"/><path d="M78,140.83s0-6.84,11.79-5.78c14.33,1.3,20.11,8.64,20.11,8.64Z" transform="translate(0 12.96)" fill="#92e3a9" stroke="#263238" stroke-linecap="round" stroke-linejoin="round"/><path d="M101.12,139.6c8.93,1,24.5,3.15,23.57,27.16s-4.39,62.84-4.39,62.84S75.64,248.68,70.6,231c0,0,2.32-20-5.08-51.13S61.44,135.27,101.12,139.6Z" transform="translate(0 12.96)" fill="#263238"/><g clip-path="url(#clip-path-8)"><path d="M127,206.94s-5.83,1.4-23.69-8.32c-28-15.27-31.14-37.68-39-34s7.77,76,7.77,76l29,1.82h26.88Z" transform="translate(0 12.96)" opacity="0.2"/></g><path d="M101.12,139.6c8.93,1,24.5,3.15,23.57,27.16s-4.39,62.84-4.39,62.84S75.64,248.68,70.6,231c0,0,2.32-20-5.08-51.13S61.44,135.27,101.12,139.6Z" transform="translate(0 12.96)" fill="none" stroke="#263238" stroke-linecap="round" stroke-linejoin="round"/><path d="M49.58,197q-.75.18-1.59.45" transform="translate(0 12.96)" fill="none" stroke="#7f7f7f" stroke-linecap="round" stroke-linejoin="round" stroke-width="0.75"/><path d="M57,197.42s-1.88-1.34-6-.72" transform="translate(0 12.96)" fill="none" stroke="#7f7f7f" stroke-linecap="round" stroke-linejoin="round" stroke-width="0.75"/><path d="M104.6,140s15.47.1,22.4,4.26c0,0,12.25-2.08,17.11,0l4.39-16.41s5.78-2.78,8.55,1.38c0,0,2.08,25-1.38,27s-30.94,8.31-30.94,8.31S107.15,159.36,104.6,140Z" transform="translate(0 12.96)" fill="#263238"/><g clip-path="url(#clip-path-9)"><path d="M124.52,160.39s-.81-6.42,11-5.59,21,1.06,22.17-4.49,14.12-15.16,10,2.82l-4.17,18-24.73,1.63Z" transform="translate(0 12.96)" opacity="0.2"/></g><path d="M104.6,140s15.47.1,22.4,4.26c0,0,12.25-2.08,17.11,0l4.39-16.41s5.78-2.78,8.55,1.38c0,0,2.08,25-1.38,27s-30.94,8.31-30.94,8.31S107.15,159.36,104.6,140Z" transform="translate(0 12.96)" fill="none" stroke="#263238" stroke-linecap="round" stroke-linejoin="round"/><path d="M147,145.53a15.81,15.81,0,0,1,3.4,3.85" transform="translate(0 12.96)" fill="none" stroke="#7f7f7f" stroke-linecap="round" stroke-linejoin="round" stroke-width="0.75"/><path d="M144.46,144.46a2.52,2.52,0,0,1,1.08.24" transform="translate(0 12.96)" fill="none" stroke="#7f7f7f" stroke-linecap="round" stroke-linejoin="round" stroke-width="0.75"/><path d="M65.16,172.74c-.54-5.18-2-14.69-1.42-21.27" transform="translate(0 12.96)" fill="none" stroke="#7f7f7f" stroke-linecap="round" stroke-linejoin="round" stroke-width="0.75"/><path d="M61.07,160.39s2.71,16,4,16" transform="translate(0 12.96)" fill="none" stroke="#7f7f7f" stroke-linecap="round" stroke-linejoin="round" stroke-width="0.75"/><line x1="70.78" y1="232.79" x2="70.78" y2="241.77" fill="none" stroke="#7f7f7f" stroke-linecap="round" stroke-linejoin="round" stroke-width="0.75"/><path d="M86,242.41s1.45,10.15,5.91,16.42" transform="translate(0 12.96)" fill="#999" stroke="#263238" stroke-linecap="round" stroke-linejoin="round"/><path d="M147.21,126l-1,3.73s6.76-1.6,12.74,1.61l-.61-4.35S154.47,124.09,147.21,126Z" transform="translate(0 12.96)" fill="#92e3a9" stroke="#263238" stroke-linecap="round" stroke-linejoin="round"/><path d="M110.28,221.9c-4.87,2.16-14.53,4.06-33.5,2.19" transform="translate(0 12.96)" fill="none" stroke="#7f7f7f" stroke-linecap="round" stroke-linejoin="round" stroke-width="0.75"/><path d="M115.16,217.92a5.36,5.36,0,0,1-1.92,2.26" transform="translate(0 12.96)" fill="none" stroke="#7f7f7f" stroke-linecap="round" stroke-linejoin="round" stroke-width="0.75"/><path d="M128.6,144.74l7.89,4.88" transform="translate(0 12.96)" fill="none" stroke="#7f7f7f" stroke-linecap="round" stroke-linejoin="round" stroke-width="0.75"/><path d="M116.25,185.84a38.66,38.66,0,0,0,9-21" transform="translate(0 12.96)" fill="none" stroke="#7f7f7f" stroke-linecap="round" stroke-linejoin="round" stroke-width="0.75"/><path d="M111.65,184.39a64.75,64.75,0,0,1-23.42,17.12" transform="translate(0 12.96)" fill="none" stroke="#7f7f7f" stroke-linecap="round" stroke-linejoin="round" stroke-width="0.75"/><path d="M115.61,179.31c-.75,1.08-1.54,2.13-2.37,3.16" transform="translate(0 12.96)" fill="none" stroke="#7f7f7f" stroke-linecap="round" stroke-linejoin="round" stroke-width="0.75"/><path d="M118,175.69c-.38.64-.78,1.26-1.18,1.88" transform="translate(0 12.96)" fill="none" stroke="#7f7f7f" stroke-linecap="round" stroke-linejoin="round" stroke-width="0.75"/><path d="M74.75,213.8a56.63,56.63,0,0,0,32.37,4.43" transform="translate(0 12.96)" fill="none" stroke="#7f7f7f" stroke-linecap="round" stroke-linejoin="round" stroke-width="0.75"/><path d="M101.82,89.59a16.41,16.41,0,0,0,2.94-1.65" transform="translate(0 12.96)" fill="none" stroke="#7f7f7f" stroke-linecap="round" stroke-linejoin="round" stroke-width="0.75"/><path d="M77.46,113.2s-5.55-10.18.86-15.73c4.89-4.22,13.61-4.63,20.59-6.8" transform="translate(0 12.96)" fill="none" stroke="#7f7f7f" stroke-linecap="round" stroke-linejoin="round" stroke-width="0.75"/><path d="M82.13,106a5.32,5.32,0,0,1,1.22-5.4c3.82-3.62,14.93-4,20.47-9.51" transform="translate(0 12.96)" fill="none" stroke="#7f7f7f" stroke-linecap="round" stroke-linejoin="round" stroke-width="0.75"/><path d="M84.39,110.68a14.67,14.67,0,0,1-1.22-2" transform="translate(0 12.96)" fill="none" stroke="#7f7f7f" stroke-linecap="round" stroke-linejoin="round" stroke-width="0.75"/></g></g></svg>